<?xml version="1.0" encoding="utf-8"?><svg xml:space="preserve" viewBox="0 0 100 100" y="0px" x="0px" xmlns:xlink="http://www.w3.org/1999/xlink" xmlns="http://www.w3.org/2000/svg" id="圖層_1" version="1.1" width="200px" height="200px" style="width:100%;height:100%;background-size:initial;background-repeat-y:initial;background-repeat-x:initial;background-position-y:initial;background-position-x:initial;background-origin:initial;background-image:initial;background-color:rgb(255, 255, 255);background-clip:initial;background-attachment:initial;animation-play-state:paused" ><g class="ldl-scale" style="transform-origin:50% 50%;transform:rotate(0deg) scale(0.8, 0.8);animation-play-state:paused" ><g style="animation-play-state:paused" ><path d="M88.24,13.99H11.76c-2.31,0-4.18,1.87-4.18,4.18v15.21h84.83V18.17C92.42,15.86,90.55,13.99,88.24,13.99z" fill="#E15B64" style="fill:rgb(225, 91, 100);animation-play-state:paused" ></path>
<circle r="3.5" cy="23.95" cx="19.8" fill="#C33737" style="fill:rgb(195, 55, 55);animation-play-state:paused" ></circle>
<line y2="23.95" x2="19.8" y1="10.03" x1="19.8" stroke-miterlimit="10" stroke-linecap="round" stroke-width="4" stroke="#CCCCCC" fill="#333333" style="stroke:rgb(204, 204, 204);fill:rgb(51, 51, 51);animation-play-state:paused" ></line>
<circle r="3.5" cy="23.95" cx="34.91" fill="#C33737" style="fill:rgb(195, 55, 55);animation-play-state:paused" ></circle>
<line y2="23.95" x2="34.91" y1="10.03" x1="34.91" stroke-miterlimit="10" stroke-linecap="round" stroke-width="4" stroke="#CCCCCC" fill="#333333" style="stroke:rgb(204, 204, 204);fill:rgb(51, 51, 51);animation-play-state:paused" ></line>
<circle r="3.5" cy="23.95" cx="50.01" fill="#C33737" style="fill:rgb(195, 55, 55);animation-play-state:paused" ></circle>
<line y2="23.95" x2="50.01" y1="10.03" x1="50.01" stroke-miterlimit="10" stroke-linecap="round" stroke-width="4" stroke="#CCCCCC" fill="#333333" style="stroke:rgb(204, 204, 204);fill:rgb(51, 51, 51);animation-play-state:paused" ></line>
<circle r="3.5" cy="23.95" cx="65.11" fill="#C33737" style="fill:rgb(195, 55, 55);animation-play-state:paused" ></circle>
<line y2="23.95" x2="65.11" y1="10.03" x1="65.11" stroke-miterlimit="10" stroke-linecap="round" stroke-width="4" stroke="#CCCCCC" fill="#333333" style="stroke:rgb(204, 204, 204);fill:rgb(51, 51, 51);animation-play-state:paused" ></line>
<circle r="3.5" cy="23.95" cx="80.22" fill="#C33737" style="fill:rgb(195, 55, 55);animation-play-state:paused" ></circle>
<line y2="23.95" x2="80.22" y1="10.03" x1="80.22" stroke-miterlimit="10" stroke-linecap="round" stroke-width="4" stroke="#CCCCCC" fill="#333333" style="stroke:rgb(204, 204, 204);fill:rgb(51, 51, 51);animation-play-state:paused" ></line></g>
<g style="animation-play-state:paused" ><path d="M7.58,33.38v51.84c0,2.31,1.87,4.18,4.18,4.18h64.95h1.4l14.3-14.3v-1.4V33.38H7.58z" fill="#E0E0E0" style="fill:rgb(224, 224, 224);animation-play-state:paused" ></path>
<path d="M92.42,73.7H81.27c-2.52,0-4.55,2.04-4.55,4.55V89.4h1.4l14.3-14.3V73.7z" fill="#B3B3B3" style="fill:rgb(179, 179, 179);animation-play-state:paused" ></path></g>
<g style="animation-play-state:paused" ><path d="M50.1,41H49.9c-1.38,0-2.5,1.12-2.5,2.5v0.19c0,1.38,1.12,2.5,2.5,2.5h0.19c1.38,0,2.5-1.12,2.5-2.5V43.5 C52.6,42.12,51.48,41,50.1,41z" fill="#E15C64" style="fill:rgb(225, 92, 100);animation-play-state:paused" ></path>
<path d="M50.44,71.65h-0.35c-2.49,0-4.5,2.01-4.5,4.5v0.35c0,2.49,2.01,4.5,4.5,4.5h0.35c2.49,0,4.5-2.01,4.5-4.5 v-0.35C54.94,73.66,52.92,71.65,50.44,71.65z" fill="#E15C64" style="fill:rgb(225, 92, 100);animation-play-state:paused" ></path>
<path d="M62.21,60.74v-4.9c0-6.62-5.15-12.26-11.76-12.49c-6.95-0.25-12.65,5.31-12.65,12.2v5.19 c0,3.87-3.14,7.01-7.01,7.01v1.56v1.24c0,2.76,2.23,4.99,4.99,4.99h28.46c2.76,0,4.99-2.23,4.99-4.99v-1.24v-1.56 C65.35,67.75,62.21,64.61,62.21,60.74z" fill="#F7B16A" style="fill:rgb(247, 177, 106);animation-play-state:paused" ></path>
<path d="M30.78,70.56c0,2.76,2.23,4.99,4.99,4.99h28.46c2.76,0,4.99-2.23,4.99-4.99v-1.24H30.78V70.56z" fill="#F37E5F" style="fill:rgb(243, 126, 95);animation-play-state:paused" ></path></g>
<metadata xmlns:d="https://loading.io/stock/" style="animation-play-state:paused" ><d:name style="animation-play-state:paused" >calendar</d:name>


<d:tags style="animation-play-state:paused" >calendar,schedule,plan,work,business,reminder,alert</d:tags>


<d:license style="animation-play-state:paused" >by</d:license>


<d:slug style="animation-play-state:paused" >pjpexx</d:slug></metadata></g><!-- generated by https://loading.io/ --></svg>