<svg xmlns="http://www.w3.org/2000/svg" viewBox="0 0 500 500"><g id="freepik--background-complete--inject-78"><rect x="33.28" y="55.87" width="119.77" height="215.15" style="fill:#ebebeb"></rect><rect x="38.07" y="62.11" width="108.96" height="202.5" style="fill:#fafafa"></rect><polygon points="158.11 272.96 153.05 271.02 153.05 52.22 158.11 52.22 158.11 272.96" style="fill:#e0e0e0"></polygon><path d="M64.78,192.92l28.3-26.31c3.58-3.33,8.27-6.92,12.88-5.28,2.22.79,3.89,2.69,6.06,3.59,4.35,1.81,9.31-.8,12.65-4.11s6-7.47,10-9.87S145,148.84,147,153.1v28.63l-41.13,17.6Z" style="fill:#f5f5f5"></path><path d="M38.07,176.46c10.43-4.24,20.83-.63,28.29,7.8,1.58,1.77,3,3.82,5.16,4.8,2.93,1.33,6.3.33,9.49,0a23.88,23.88,0,0,1,22.45,10.88L68.64,217l-30.57-.23Z" style="fill:#e0e0e0"></path><path d="M147,176.61c-6.87-3.32-12.91.69-19.25,4.94s-12.23,9.69-19.66,11.4c-5,1.14-10.29.51-15.09,2.22-9.78,3.48-15.43,15.9-25.8,16.49-5.63.32-10.67-3.09-15.7-5.65s-9-5-13.46-1.56v60.16H147Z" style="fill:#ebebeb"></path><rect x="38.07" y="120.36" width="111.33" height="2.16" style="fill:#e0e0e0"></rect><rect x="38.07" y="168.59" width="111.33" height="2.16" style="fill:#e0e0e0"></rect><rect x="38.07" y="216.81" width="111.33" height="2.16" style="fill:#e0e0e0"></rect><rect x="18.09" y="193.15" width="148.91" height="5.51" transform="translate(-103.35 288.45) rotate(-90)" style="fill:#e0e0e0"></rect><rect x="59.05" y="62.11" width="2.49" height="59.33" style="fill:#e0e0e0"></rect><rect x="80.56" y="62.11" width="2.49" height="59.33" style="fill:#e0e0e0"></rect><rect x="102.07" y="62.11" width="2.49" height="59.33" style="fill:#e0e0e0"></rect><rect x="123.58" y="62.11" width="2.49" height="59.33" style="fill:#e0e0e0"></rect><rect x="28.22" y="52.22" width="5.07" height="220.13" style="fill:#e0e0e0"></rect><rect x="28.22" y="50" width="129.9" height="5.87" style="fill:#e0e0e0"></rect><rect x="24.62" y="273.69" width="136.92" height="5.47" style="fill:#e0e0e0"></rect><polygon points="153.05 271.02 161.54 273.69 24.62 273.69 33.28 271.02 153.05 271.02" style="fill:#ebebeb"></polygon><path d="M50.41,389.81a19.51,19.51,0,0,0-12.09-1.47c-2.2.36-4.48,1-6,2.67s-1.77,4.55-.06,6a5.73,5.73,0,0,0,3.77,1c3.2,0,6.74-.6,9.3,1.32,1.45,1.1,2.42,2.92,4.17,3.46a4.11,4.11,0,0,0,4.53-2,7.07,7.07,0,0,0,.51-5.2A7.91,7.91,0,0,0,50.41,389.81Z" style="fill:#ebebeb"></path><path d="M58.84,373.54c-2.25,3.22-6.62,2.15-8.65.19s-2.88-4.8-3.66-7.51c-1.78-6.19-3.58-12.69-2.26-19a10.56,10.56,0,0,1,2.43-5.16,5.51,5.51,0,0,1,5.22-1.74c2.21.58,3.58,2.74,4.57,4.8A45.22,45.22,0,0,1,61,364.55c0,3.13-.36,6.41-2.12,9" style="fill:#ebebeb"></path><path d="M65,378.15c-2.45-2.9-2.91-7.12-1.82-10.75a20.69,20.69,0,0,1,6.37-9.25A34.36,34.36,0,0,1,81,351.42a12.1,12.1,0,0,1,5.13-.87,5.38,5.38,0,0,1,4.3,2.61c1.2,2.29,0,5.06-1.19,7.33a87,87,0,0,1-7.5,11.41c-2.24,2.9-4.81,5.75-8.24,7.06s-7,1.16-8.79-1.22" style="fill:#ebebeb"></path><path d="M59,422a7,7,0,0,1-.2-1.46c-.11-1.06-.24-2.39-.39-4a57.37,57.37,0,0,0-.9-5.84,44.83,44.83,0,0,0-2.12-6.9,25.38,25.38,0,0,0-3.52-6.24,13.18,13.18,0,0,0-4.45-3.7,12.31,12.31,0,0,0-3.75-1.17,7.54,7.54,0,0,1-1.46-.21,6.75,6.75,0,0,1,1.48,0,11.32,11.32,0,0,1,3.91,1,13.12,13.12,0,0,1,4.7,3.74,24.74,24.74,0,0,1,3.65,6.36,43,43,0,0,1,2.11,7,49.23,49.23,0,0,1,.77,5.92c.13,1.69.18,3.06.2,4A7,7,0,0,1,59,422Z" style="fill:#e0e0e0"></path><path d="M58.72,418.94a2.6,2.6,0,0,1,0-.68v-1.94c0-1.68,0-4.11-.08-7.11-.15-6-.67-12.48-1.67-21.59-1-8.57-2.22-18.55-3.55-25-.29-1.48-.58-2.81-.85-4s-.49-2.17-.7-3-.33-1.39-.45-1.88a2.87,2.87,0,0,1-.12-.67,2.58,2.58,0,0,1,.23.63l.57,1.86c.25.8.5,1.8.79,3s.63,2.48.94,4a218.9,218.9,0,0,1,3.74,23.22c1,9.14,1.45,17.46,1.49,23.48,0,3,0,5.45-.1,7.13-.05.79-.09,1.43-.12,1.93A3.63,3.63,0,0,1,58.72,418.94Z" style="fill:#e0e0e0"></path><path d="M58.68,402.9a11.32,11.32,0,0,1,0-2,53.57,53.57,0,0,1,.62-5.48,73.35,73.35,0,0,1,1.78-8A66.09,66.09,0,0,1,64.43,378a50.45,50.45,0,0,1,9.81-15.27,24.19,24.19,0,0,1,2.31-2.14c.35-.3.67-.6,1-.84l.9-.62a15.41,15.41,0,0,1,1.7-1.09,62.59,62.59,0,0,0-5.58,5A52.78,52.78,0,0,0,65,378.19a72.46,72.46,0,0,0-3.36,9.37,80.14,80.14,0,0,0-1.9,7.9c-.42,2.28-.66,4.14-.81,5.43A14.36,14.36,0,0,1,58.68,402.9Z" style="fill:#e0e0e0"></path><polygon points="74.18 431.19 72.57 453.21 44.28 453.21 42.68 431.19 74.18 431.19" style="fill:#e0e0e0"></polygon><rect x="39.3" y="422.51" width="37.61" height="8.68" style="fill:#e0e0e0"></rect><polygon points="76.91 452.37 76.91 454.78 75.15 454.78 39.92 454.78 39.92 452.37 76.91 452.37" style="fill:#ebebeb"></polygon><polygon points="73.41 459.01 75.15 454.78 41.27 454.78 43.29 459.01 73.41 459.01" style="fill:#e0e0e0"></polygon><path d="M43.2,438.39s0,.07.13.2.25.34.43.56l1.64,2.11.08.1.07-.1,4.05-5.6h-.24c1.21,1.7,2.55,3.6,4,5.64l.13.18.13-.17,4.73-5.62h-.27l.26.33,4.23,5.3.14.18.13-.19,4-5.64h-.24l4.92,5.6.08.1.07-.11,1.54-2.59.39-.69a.81.81,0,0,0,.12-.24,1.37,1.37,0,0,0-.16.22l-.44.66-1.61,2.54.15,0-4.83-5.66-.12-.14-.11.15-4,5.62h.27l-4.21-5.31-.26-.32-.14-.17-.14.16-4.71,5.64h.26l-4-5.62-.12-.16-.12.16-4,5.66h.14l-1.71-2.06-.46-.53A.72.72,0,0,0,43.2,438.39Z" style="fill:#f5f5f5"></path><path d="M42.28,431.05c0,.1,7.09.17,15.83.17S74,431.15,74,431.05s-7.09-.18-15.84-.18S42.28,431,42.28,431.05Z" style="fill:#f5f5f5"></path><path d="M40.85,455c0,.09,7.71.17,17.21.17s17.2-.08,17.2-.17-7.7-.18-17.2-.18S40.85,454.92,40.85,455Z" style="fill:#f5f5f5"></path></g><g id="freepik--Character--inject-78"><path d="M103.73,427.58l-1.46,20.47s20.35,6.86,20.45,10.67l-39.83.1,1-32Z" style="fill:#F35650"></path><g style="opacity:0.6000000000000001"><path d="M90,445.89a1.64,1.64,0,0,0-1.19,1.82,1.57,1.57,0,0,0,1.79,1.19A1.71,1.71,0,0,0,91.87,447a1.61,1.61,0,0,0-2-1" style="fill:#fff"></path></g><g style="opacity:0.6000000000000001"><path d="M82.89,458.82l.1-3.23,38.46,1.25a2.77,2.77,0,0,1,1.47,2.17Z" style="fill:#fff"></path></g><path d="M102.92,447.87c0,.19-1,.25-2,.84s-1.51,1.39-1.69,1.31.16-1.2,1.35-1.9S103,447.69,102.92,447.87Z" style="fill:#263238"></path><path d="M107,449.74c0,.19-.81.49-1.5,1.29s-.91,1.66-1.1,1.65-.28-1.12.59-2.1S107,449.56,107,449.74Z" style="fill:#263238"></path><path d="M109.23,454.82c-.18,0-.41-.94.12-2s1.46-1.44,1.54-1.27-.51.71-.93,1.58S109.42,454.81,109.23,454.82Z" style="fill:#263238"></path><path d="M102.74,443.17c-.09.17-1-.13-2.08-.09s-2,.35-2.06.18.75-.83,2.05-.86S102.84,443,102.74,443.17Z" style="fill:#263238"></path><g style="opacity:0.30000000000000004"><polygon points="102.68 442.28 102.41 446.05 83.29 445.21 83.39 441.91 102.68 442.28"></polygon></g><path d="M103,439a3.78,3.78,0,0,1-2-.08,9,9,0,0,1-2.06-.71,10.18,10.18,0,0,1-1.13-.65,2.7,2.7,0,0,1-.58-.49.85.85,0,0,1,0-1,1,1,0,0,1,.86-.41,2.66,2.66,0,0,1,.75.13,6.31,6.31,0,0,1,1.22.47,7,7,0,0,1,1.8,1.27c.89.88,1.18,1.62,1.11,1.66s-.52-.57-1.43-1.3a7.87,7.87,0,0,0-1.74-1.07,7.5,7.5,0,0,0-1.13-.39c-.42-.13-.78-.14-.9,0s0,.1,0,.23a2.08,2.08,0,0,0,.43.35,9.62,9.62,0,0,0,1,.64,11.11,11.11,0,0,0,1.9.81A15.17,15.17,0,0,1,103,439Z" style="fill:#263238"></path><path d="M102.69,439.3a3.17,3.17,0,0,1-.46-1.94,6.53,6.53,0,0,1,.35-2.18,7.4,7.4,0,0,1,.55-1.19,1.66,1.66,0,0,1,1.31-1,.93.93,0,0,1,.81.59,2.77,2.77,0,0,1,.18.73,4.32,4.32,0,0,1-.05,1.35,4.55,4.55,0,0,1-.92,2c-.81,1-1.63,1.2-1.65,1.14s.63-.45,1.26-1.42a4.61,4.61,0,0,0,.7-1.86,4,4,0,0,0,0-1.15c0-.42-.19-.77-.35-.73s-.55.29-.72.63a6.17,6.17,0,0,0-.53,1.06,7,7,0,0,0-.46,2C102.62,438.54,102.8,439.28,102.69,439.3Z" style="fill:#263238"></path><path d="M145.14,431l-3.38,18.59s17.93,8.32,17.64,11.81L123,457.47,127,428.29Z" style="fill:#F35650"></path><g style="opacity:0.6000000000000001"><path d="M130.77,446.35a1.5,1.5,0,0,0-1.27,1.55,1.44,1.44,0,0,0,1.52,1.27,1.58,1.58,0,0,0,1.33-1.64,1.49,1.49,0,0,0-1.72-1.15" style="fill:#fff"></path></g><g style="opacity:0.6000000000000001"><path d="M123,457.47l.41-2.94,35.07,5a2.52,2.52,0,0,1,1.13,2.13Z" style="fill:#fff"></path></g><path d="M142.37,449.45c0,.18-.93.13-1.88.57s-1.53,1.12-1.68,1,.26-1.08,1.42-1.6S142.43,449.3,142.37,449.45Z" style="fill:#263238"></path><path d="M146,451.58c0,.18-.8.36-1.51,1s-1,1.43-1.17,1.39-.14-1.05.76-1.85S146,451.41,146,451.58Z" style="fill:#263238"></path><path d="M147.45,456.45c-.17,0-.28-.91.31-1.82s1.48-1.17,1.54-1-.54.61-1,1.36S147.63,456.45,147.45,456.45Z" style="fill:#263238"></path><path d="M142.67,445.13c-.09.15-.87-.21-1.88-.29s-1.84.13-1.91,0,.77-.69,2-.58S142.78,445,142.67,445.13Z" style="fill:#263238"></path><g style="opacity:0.30000000000000004"><polygon points="143.21 441.49 142.3 446.64 124.81 443.88 125.22 440.88 143.21 441.49"></polygon></g><path d="M143.29,441.37a3.49,3.49,0,0,1-1.82-.28,7.93,7.93,0,0,1-1.82-.86,8.32,8.32,0,0,1-1-.7,2.41,2.41,0,0,1-.49-.51.77.77,0,0,1,.06-.95,1,1,0,0,1,.83-.29,2.31,2.31,0,0,1,.67.19,6.36,6.36,0,0,1,2.59,1.89,3.16,3.16,0,0,1,.86,1.63c-.09.05-.42-.56-1.19-1.33a7.46,7.46,0,0,0-1.48-1.15,6.13,6.13,0,0,0-1-.47c-.37-.16-.7-.21-.82-.05s-.05.08,0,.21a2,2,0,0,0,.36.37c.29.25.59.48.88.69a10.53,10.53,0,0,0,1.66.92A11.76,11.76,0,0,1,143.29,441.37Z" style="fill:#263238"></path><path d="M143,441.59a2.9,2.9,0,0,1-.23-1.83,6.06,6.06,0,0,1,.54-1.95,5.94,5.94,0,0,1,.62-1,1.55,1.55,0,0,1,1.29-.75.87.87,0,0,1,.69.62,2.57,2.57,0,0,1,.09.69,3.77,3.77,0,0,1-.18,1.23,4.18,4.18,0,0,1-1,1.76c-.85.84-1.62.94-1.63.88s.63-.35,1.3-1.17a4.3,4.3,0,0,0,.82-1.63,3.6,3.6,0,0,0,.12-1c0-.4-.1-.73-.25-.71s-.53.22-.72.5a6.28,6.28,0,0,0-.6.92,6.66,6.66,0,0,0-.61,1.77C143,440.88,143.12,441.57,143,441.59Z" style="fill:#263238"></path><polygon points="145.51 443.87 159.79 358.8 130.66 362.69 123.83 440.68 145.51 443.87" style="fill:#263238"></polygon><polygon points="118.44 270.19 80.98 268.86 80.98 268.86 80.12 442.73 105.67 443.21 119.76 307.76 118.44 270.19" style="fill:#263238"></polygon><polygon points="136.89 266.64 159.79 358.8 131.11 366.85 117.51 320.68 107.24 276.53 136.89 266.64" style="fill:#263238"></polygon><path d="M121.9,295.27a2,2,0,0,1,0,.56c-.05.43-.11,1-.19,1.6-.19,1.46-.45,3.45-.77,5.88-.67,5-1.58,11.84-2.59,19.37s-1.82,14.44-2.34,19.41c-.27,2.49-.46,4.5-.58,5.89-.05.65-.1,1.18-.14,1.61a2.23,2.23,0,0,1-.09.56,3.61,3.61,0,0,1,0-.57c0-.42,0-1,0-1.61.06-1.4.19-3.42.41-5.92.43-5,1.21-11.86,2.2-19.43s2-14.42,2.74-19.36c.38-2.42.7-4.4.93-5.86.12-.64.21-1.16.29-1.58A2.41,2.41,0,0,1,121.9,295.27Z" style="fill:#455a64"></path><path d="M85.1,273c.14,0,.71,38,1.27,84.8s.9,84.82.75,84.82-.71-38-1.27-84.81S85,273,85.1,273Z" style="fill:#fff"></path><path d="M90.3,274c.14,0,.31,37.54.38,83.84s0,83.85-.15,83.85-.31-37.53-.37-83.85S90.16,274,90.3,274Z" style="fill:#fff"></path><path d="M121.29,276.76a3,3,0,0,1,1.18-.31,7.08,7.08,0,0,1,3.3.4,6,6,0,0,1,2,1.18,1.45,1.45,0,0,1,.38.62,1,1,0,0,1-.13.8,1.81,1.81,0,0,1-1.33.69,5.67,5.67,0,0,1-5.32-2.66l-.06-.1h.45A12.51,12.51,0,0,1,120,280a3.78,3.78,0,0,1-2.67,1.33,1.94,1.94,0,0,1-1.35-.6,1.58,1.58,0,0,1-.38-1.36,3.1,3.1,0,0,1,1.42-1.88,5.55,5.55,0,0,1,3.19-.87,2.55,2.55,0,0,1,1.18.24s-.43-.06-1.18,0a5.54,5.54,0,0,0-3,1,2.73,2.73,0,0,0-1.21,1.65,1.13,1.13,0,0,0,.29,1,1.52,1.52,0,0,0,1,.43,3.35,3.35,0,0,0,2.29-1.21,11.87,11.87,0,0,0,1.66-2.49l.22-.39.24.38,0,.09a5.27,5.27,0,0,0,4.83,2.46,1.44,1.44,0,0,0,1-.47.69.69,0,0,0-.18-.87,6,6,0,0,0-1.85-1.14,7.43,7.43,0,0,0-3.16-.54C121.72,276.69,121.3,276.8,121.29,276.76Z" style="fill:#455a64"></path><path d="M98.4,279.82a15.87,15.87,0,0,1-2.2,5.23,16,16,0,0,1-3.49,4.47c-.12-.1,1.48-2,3-4.73S98.25,279.77,98.4,279.82Z" style="fill:#455a64"></path><path d="M141.11,283.13a16.11,16.11,0,0,1-4.65-3,15.9,15.9,0,0,1-3.75-4c.11-.11,1.77,1.71,4.09,3.64S141.19,283,141.11,283.13Z" style="fill:#455a64"></path><path d="M98.36,169.3A10.17,10.17,0,0,0,88,171.9a19,19,0,0,1-2.62,2.76c-2.36,1.65-5.69.91-8.29,2.15a6.76,6.76,0,0,0-3.41,7.4,8.6,8.6,0,0,0,5.8,6.08,11.89,11.89,0,0,0,8.56-.75,19.66,19.66,0,0,0,6.76-5.5c3.32-4,5.57-9.23,5-14.43" style="fill:#F35650"></path><path d="M97.77,169.54l-3.09,7.87L76.34,188.83l8.94,58s-7.53,12.59-7.38,21.87v.07a2.68,2.68,0,0,0,2.18,2.58c5.7,1.15,24.51,4.61,37.22,3.38C131.91,273.37,138,271,138,271l2-8.62L137.53,255l-3.38-58.75s-1.31-10-3.56-12.68l-6.47-5-3.5-6.22Z" style="fill:#F35650"></path><path d="M125.24,179.45c7.38,2.44,14.55,5.82,14.73,20.33s1.3,47.31,1.3,47.31l-13.09-6-2.94-53.23Z" style="fill:#F35650"></path><g style="opacity:0.30000000000000004"><path d="M79.73,259A58.51,58.51,0,0,0,90,260.69a18.16,18.16,0,0,0,9.66-2,36.53,36.53,0,0,0,5.67-4.43c4.85-4.19,10.35-7.54,15.83-10.87l8.83-5.37a6.37,6.37,0,0,0,2-1.65,2.2,2.2,0,0,0,.17-2.45,2.17,2.17,0,0,0-2.12-.73,6.25,6.25,0,0,0-2.16.92l-9.64,5.63c-11.81,6.89-24,13.92-37.5,16Z"></path></g><path d="M92.39,230.59a1.06,1.06,0,0,1,.39-.52l1.81-1.3a1,1,0,0,0,.44-.91l-.49-8.45v-.08c0-.94.42-19.48-1.68-25.55-2-5.88-7.13-9.09-16.36-5.77a24.32,24.32,0,0,0-2.21,2.42h0a19.69,19.69,0,0,0-2.89,9.64L70.74,220s-1.83,18.38-2.09,20.87c-.66,6.2,1.59,16.24,6.86,17,2.38.33,17.79-2.87,20.84-3.71a6.46,6.46,0,0,0,2.15-2.5l1.93-19a1.66,1.66,0,0,0-1.59-1.82Z" style="fill:#F35650"></path><path d="M95.09,203.75a6.08,6.08,0,0,1,.1,1.13c0,.82.07,1.86.12,3.09.08,2.61.16,6.22.22,10.21,0,2,0,3.88.06,5.62a8.11,8.11,0,0,1-.88,4.54,6.87,6.87,0,0,1-2.25,2.17,3.19,3.19,0,0,1-1,.47s.35-.2.94-.62a7.1,7.1,0,0,0,2.07-2.19,8,8,0,0,0,.74-4.36c0-1.74-.07-3.64-.1-5.62-.06-4-.09-7.6-.08-10.21,0-1.24,0-2.27,0-3.1A4.62,4.62,0,0,1,95.09,203.75Z" style="fill:#263238"></path><path d="M84.73,239.61A4.27,4.27,0,0,1,85,238a11,11,0,0,1,1.78-3.5,9.71,9.71,0,0,1,3-2.6,3.69,3.69,0,0,1,1.52-.6,15.3,15.3,0,0,0-4.11,3.47A19.64,19.64,0,0,0,84.73,239.61Z" style="fill:#263238"></path><path d="M81.14,235.18a4.37,4.37,0,0,1,1.06-1.38,10.72,10.72,0,0,1,3.52-2.31,10.57,10.57,0,0,1,4.13-.76,4.26,4.26,0,0,1,1.72.27,13,13,0,0,1-1.71.05,12.28,12.28,0,0,0-7.44,3A13.1,13.1,0,0,1,81.14,235.18Z" style="fill:#263238"></path><g style="opacity:0.30000000000000004"><path d="M91.24,230.75a13.32,13.32,0,0,0-13,2.73c-.44.4-.88,1-.71,1.51a1.12,1.12,0,0,0,1,.73,2.77,2.77,0,0,0,1.26-.23,44.46,44.46,0,0,0,5.64-3,10.1,10.1,0,0,1,6.12-1.54"></path></g><path d="M136.17,225.87c2.24,9.73,5.34,19.31,6.29,29.25.43,4.47.33,9.29-2.15,13a9.44,9.44,0,0,1-3.85,3.43" style="fill:#F35650"></path><path d="M134.29,195.86a1.47,1.47,0,0,1,.06.47c0,.37.05.82.08,1.35,0,1.26.13,2.94.21,5,.18,4.2.43,10,.88,16.38s1.1,12.16,1.66,16.31c.28,2.08.52,3.77.7,4.93l.19,1.34a1.4,1.4,0,0,1,0,.47,1.61,1.61,0,0,1-.13-.46c-.08-.36-.17-.79-.29-1.32-.24-1.15-.53-2.83-.86-4.9-.66-4.16-1.35-9.93-1.82-16.33s-.64-12.21-.72-16.41c0-2.1-.06-3.8-.05-5,0-.54,0-1,0-1.36A1.57,1.57,0,0,1,134.29,195.86Z" style="fill:#263238"></path><path d="M93.19,175.51s-.23.26-.7.66-1.17,1-2,1.62c-1.76,1.33-4.26,3.07-7,5s-5.16,3.77-6.84,5.18-2.67,2.34-2.73,2.28a3.48,3.48,0,0,1,.61-.74c.42-.45,1.06-1.08,1.88-1.82a72.58,72.58,0,0,1,6.78-5.33c2.75-1.93,5.27-3.62,7.08-4.87A29.47,29.47,0,0,1,93.19,175.51Z" style="fill:#263238"></path><polygon points="100.21 232.16 104.71 230.27 104.71 249.65 96.89 252.59 100.21 232.16" style="fill:#F35650"></polygon><path d="M89.14,232.24a5.62,5.62,0,0,1,1.24-.24l3.38-.44,2.35-.28,1.3-.15a7.45,7.45,0,0,1,1.44-.08,1.9,1.9,0,0,1,1.43.77,2.69,2.69,0,0,1,.36,1.62c-.1,1.09-.33,2.11-.49,3.2-.7,4.34-1.24,8.29-1.73,11.14-.24,1.42-.46,2.57-.62,3.36a5.06,5.06,0,0,1-.31,1.22,6.79,6.79,0,0,1,.11-1.25c.12-.9.27-2,.46-3.38.39-2.86.87-6.82,1.58-11.17.15-1.08.4-2.17.49-3.14a2.19,2.19,0,0,0-.26-1.32,1.43,1.43,0,0,0-1.07-.57,20.93,20.93,0,0,0-2.65.18l-2.35.22-3.4.28A6.71,6.71,0,0,1,89.14,232.24Z" style="fill:#263238"></path><path d="M104.44,234.82a7.48,7.48,0,0,1-2.36,1.45,7.5,7.5,0,0,1-2.6,1,7.6,7.6,0,0,1,2.37-1.45A7.56,7.56,0,0,1,104.44,234.82Z" style="fill:#263238"></path><path d="M104.71,243.15a16.63,16.63,0,0,1-3.09,1.45,8.57,8.57,0,0,1-3.29,1,16.63,16.63,0,0,1,3.09-1.45A8.79,8.79,0,0,1,104.71,243.15Z" style="fill:#263238"></path><path d="M97.82,252.24a10.91,10.91,0,0,1,1.84-.83c1.19-.49,2.91-1.17,5-2l-.14.21c0-2.47,0-5.35,0-8.45,0-4.25,0-8.11.07-10.93l.26.17-3.33,1.31a7.41,7.41,0,0,1-1.24.41,5.54,5.54,0,0,1,1.16-.61l3.27-1.45.25-.12v.29c0,2.82.07,6.68.07,10.93,0,3.1,0,6,0,8.45v.15l-.14.06c-2.09.75-3.82,1.37-5,1.79A12.83,12.83,0,0,1,97.82,252.24Z" style="fill:#263238"></path><path d="M116.8,181a2.13,2.13,0,0,1-.71.33,8.5,8.5,0,0,1-2.1.45,13.9,13.9,0,0,1-6.9-1.26,27.27,27.27,0,0,1-5.91-3.79A15.52,15.52,0,0,1,99,174.81a17.17,17.17,0,0,1,2.38,1.65,33.78,33.78,0,0,0,5.89,3.6,14.84,14.84,0,0,0,6.67,1.37A27.09,27.09,0,0,0,116.8,181Z" style="fill:#263238"></path><path d="M119,178.8c.1.1-.07.46-.38.82s-.66.57-.77.47.06-.46.38-.82S118.85,178.71,119,178.8Z" style="fill:#263238"></path><path d="M115.17,249.47s0,.28-.12.77a12.23,12.23,0,0,1-.67,2,17.68,17.68,0,0,1-9.84,9.52,13.12,13.12,0,0,1-2,.6c-.5.09-.77.13-.78.09s1.06-.33,2.67-1A19.19,19.19,0,0,0,114,252.1C114.8,250.51,115.08,249.45,115.17,249.47Z" style="fill:#263238"></path><path d="M133.33,245.6a9.84,9.84,0,0,1-2.13.69c-1.34.35-3.2.78-5.27,1.17s-4,.67-5.34.83a8.83,8.83,0,0,1-2.24.13,11.11,11.11,0,0,1,2.18-.5l5.3-1,5.29-1A9.5,9.5,0,0,1,133.33,245.6Z" style="fill:#263238"></path><path d="M154.27,207.71l-6.06,2.81-2.84,2.88s6.61-.78,6.79.33.2,2.37-.24,2.72a7.39,7.39,0,0,0-1.08,1.39s1.59,1.77,1,2.68a10.34,10.34,0,0,0-1,1.83l-.94-.08s.1,3.44-.62,3.91a2.82,2.82,0,0,1-1.56.66,29,29,0,0,1-3,.28l-1.09-.1s-5.67,7.14-7.7,7-5.77-.24-5.77-.24a76.79,76.79,0,0,1-31.81,18.49l1.45-16.54.2-3,31.24-11.24,11.11-12.39,5.2-2.55,7.57-1.66A2.58,2.58,0,0,1,154.27,207.71Z" style="fill:#ffbe9d"></path><path d="M130.15,233.75h1.14l3.27.08,1.12,0a1.81,1.81,0,0,0,1.12-.25,11.43,11.43,0,0,0,2.17-1.69,52.06,52.06,0,0,0,4.52-5l.06-.07h.09l1.08.09h0c.66,0,1.34-.08,2-.16a9.27,9.27,0,0,0,1-.14,2.54,2.54,0,0,0,.95-.32l.46-.31a.86.86,0,0,0,.22-.37,5,5,0,0,0,.22-1.06,19.59,19.59,0,0,0,.08-2.31V222l.24,0,.94.08-.21.13a9.67,9.67,0,0,1,.53-1.13c.17-.37.53-.76.55-1a2.07,2.07,0,0,0-.34-1.1,5.53,5.53,0,0,0-.72-1l-.11-.13.08-.14a10.9,10.9,0,0,1,.82-1.14c.09-.09.17-.18.27-.27a.51.51,0,0,0,.16-.2,1.88,1.88,0,0,0,.13-.6,7,7,0,0,0,0-1.37l-.05-.35c0-.06,0-.07-.1-.13a1.92,1.92,0,0,0-.6-.19,26.85,26.85,0,0,0-5.85.16l-.63.06.44-.45.11-.1,2.74-2.78,0,0,0,0,6.06-2.8,0,0a2.38,2.38,0,0,0,.78-2.63l.25.14-7.58,1.65,0,0-5.21,2.53.05-.05-8.16,9-2.26,2.45-.6.63-.22.21s.05-.09.18-.24l.56-.67,2.19-2.51c1.93-2.19,4.68-5.3,8.05-9.09l0,0,0,0,5.19-2.56h.05l7.56-1.68.2,0,.05.18a2.78,2.78,0,0,1-.9,3.13h0l0,0-6.05,2.8.06,0-2.74,2.78-.1.1-.19-.38c1-.12,2-.2,3-.25a16.5,16.5,0,0,1,3,.09,2.15,2.15,0,0,1,.76.26.62.62,0,0,1,.3.44l.05.36a7.21,7.21,0,0,1,0,1.47,2.41,2.41,0,0,1-.18.75,1,1,0,0,1-.27.35,2.28,2.28,0,0,0-.22.22A8.22,8.22,0,0,0,151,218l0-.26a6.53,6.53,0,0,1,.78,1.11,2.54,2.54,0,0,1,.38,1.35,1.53,1.53,0,0,1-.29.67c-.11.17-.21.34-.31.52a11.77,11.77,0,0,0-.52,1.08l-.06.15h-.15l-1-.09.23-.21a18.4,18.4,0,0,1-.1,2.36,5.83,5.83,0,0,1-.24,1.16,1.22,1.22,0,0,1-.38.56l-.46.31a2.81,2.81,0,0,1-1.1.37,10.12,10.12,0,0,1-1.07.14c-.7.07-1.39.11-2.05.14h0l-1.08-.1.15-.06a50.36,50.36,0,0,1-4.6,5,11.1,11.1,0,0,1-2.25,1.7,3.29,3.29,0,0,1-.62.23,2.26,2.26,0,0,1-.63,0l-1.12-.06-3.25-.18-.85-.06Z" style="fill:#eb996e"></path><path d="M150.88,217.7c0,.05-.38-.19-1-.4a5.77,5.77,0,0,0-2.5-.24,14.9,14.9,0,0,0-2.5.57c-.65.2-1,.3-1.08.24s.34-.27,1-.54a9.41,9.41,0,0,1,2.57-.72A5,5,0,0,1,150,217C150.64,217.31,150.92,217.66,150.88,217.7Z" style="fill:#eb996e"></path><path d="M149.93,222.44a1.06,1.06,0,0,0-.45-.78,4.8,4.8,0,0,0-2.33-.22,14.89,14.89,0,0,0-3.34.93A4.91,4.91,0,0,1,147.1,221a6,6,0,0,1,1.42,0,2.25,2.25,0,0,1,1.14.39,1,1,0,0,1,.39.75C150,222.36,150,222.45,149.93,222.44Z" style="fill:#eb996e"></path><path d="M146.89,224.91c0,.06-.27.18-.75.23a8.67,8.67,0,0,0-1.75.24,1.24,1.24,0,0,0-.94,1.11c0,.42.24.61.2.67s-.41-.08-.52-.63a1.25,1.25,0,0,1,.21-.92,1.87,1.87,0,0,1,.9-.67,4.94,4.94,0,0,1,1.89-.12C146.59,224.85,146.87,224.85,146.89,224.91Z" style="fill:#eb996e"></path><path d="M97.27,139l1.07,31.45,11.14,7.31a7.31,7.31,0,0,0,11.23-5h0V169s8.94-.92,9.51-9.78c.28-4.31.13-13.25-.1-21.3a16.43,16.43,0,0,0-16.35-16h0A16.44,16.44,0,0,0,97.27,139Z" style="fill:#ffbe9d"></path><path d="M120.73,169a20.68,20.68,0,0,1-11.39-3.89s2.4,6.52,11.29,6.19Z" style="fill:#eb996e"></path><path d="M128,144.27a1.27,1.27,0,0,1-1.29,1.21,1.22,1.22,0,0,1-1.25-1.21,1.27,1.27,0,0,1,1.29-1.21A1.22,1.22,0,0,1,128,144.27Z" style="fill:#263238"></path><path d="M128,142.45c-.16.15-1.09-.61-2.45-.68s-2.4.57-2.54.39.11-.37.56-.66a3.49,3.49,0,0,1,2-.51,3.21,3.21,0,0,1,1.94.74C128,142.07,128.07,142.38,128,142.45Z" style="fill:#263238"></path><path d="M114.62,144.16a1.27,1.27,0,0,1-1.28,1.22,1.22,1.22,0,0,1-1.25-1.22,1.27,1.27,0,0,1,1.29-1.21A1.2,1.2,0,0,1,114.62,144.16Z" style="fill:#263238"></path><path d="M114.58,142c-.17.16-1.09-.6-2.45-.67s-2.4.56-2.54.39.11-.37.56-.67a3.49,3.49,0,0,1,2-.51,3.34,3.34,0,0,1,1.94.74C114.53,141.62,114.66,141.93,114.58,142Z" style="fill:#263238"></path><path d="M119,152.37a9,9,0,0,1,2.23-.29c.35,0,.69-.07.76-.3a1.82,1.82,0,0,0-.18-1.05l-.89-2.7c-1.23-3.85-2.11-7-2-7.05a46.12,46.12,0,0,1,2.51,6.88l.85,2.71a2.07,2.07,0,0,1,.11,1.38.89.89,0,0,1-.6.48,2.17,2.17,0,0,1-.6,0A9.65,9.65,0,0,1,119,152.37Z" style="fill:#263238"></path><path d="M115.21,136.68c-.15.36-1.5.11-3.11.22s-2.93.48-3.12.14c-.09-.17.15-.5.69-.84a5.28,5.28,0,0,1,2.35-.68,5.08,5.08,0,0,1,2.4.41C115,136.2,115.28,136.5,115.21,136.68Z" style="fill:#263238"></path><path d="M127.7,138.47c-.26.3-1.18-.07-2.31-.14s-2.1.1-2.3-.24c-.09-.16.08-.46.51-.73a3.36,3.36,0,0,1,3.71.3C127.69,138,127.81,138.33,127.7,138.47Z" style="fill:#263238"></path><path d="M100.28,146.47c-.15-.07-6-2.12-6.13,3.95s6,5,6,4.77S100.28,146.47,100.28,146.47Z" style="fill:#ffbe9d"></path><path d="M98.36,152.86s-.11.07-.29.15a1.11,1.11,0,0,1-.79,0,2.6,2.6,0,0,1-1.16-2.38,3.52,3.52,0,0,1,.32-1.51,1.22,1.22,0,0,1,.82-.79.53.53,0,0,1,.61.3c.08.17,0,.29.07.3s.13-.1.09-.35a.65.65,0,0,0-.23-.38.8.8,0,0,0-.58-.17,1.5,1.5,0,0,0-1.13.92,3.67,3.67,0,0,0-.4,1.69,2.76,2.76,0,0,0,1.49,2.65,1.12,1.12,0,0,0,1-.14C98.34,153,98.38,152.87,98.36,152.86Z" style="fill:#eb996e"></path><path d="M120.12,155.72a2,2,0,1,0,0,3" style="fill:#eb996e"></path><path d="M119.53,158.91s-.34.4-1.12.33a2,2,0,0,1-1.2-.59,2,2,0,0,1,.38-3,2,2,0,0,1,1.31-.27c.77.12,1,.58,1,.6s-.39-.22-1-.23a1.67,1.67,0,0,0-1,.3,1.59,1.59,0,0,0-.29,2.26,1.77,1.77,0,0,0,.9.55C119.09,159,119.5,158.83,119.53,158.91Z" style="fill:#263238"></path><path d="M125.55,128.16c1-.55-2-3.78-4.45-4.9-3.71-1.68-9.38-2.72-12.8-1.75-4.12,1.16-8,2.77-10.07,6.52s-2.41,8.7-2.29,13c0,1.31.4,4.86,1.08,5.22,1.14.59,2.32.63,2.25,2.52a2.57,2.57,0,0,0,.64,1.88c1.13,1.2,2.51.07,3.15-1.06,1.35-2.41,1.51-5.3,1.63-8.07a18.32,18.32,0,0,0-.39-5.87c-.3-1-.79-2-1-3a3.72,3.72,0,0,1,.44-3.08,3.31,3.31,0,0,1,.5-.51,6.44,6.44,0,0,1,6.39-1.21c3.47,1.23,9.4,3.07,11,1.89a9.5,9.5,0,0,0,2.77-2.8Z" style="fill:#455a64"></path><path d="M121.1,123.26c-3.71-1.68-9.38-2.72-12.8-1.75-4.12,1.16-8,2.77-10.07,6.52l6,1a6.44,6.44,0,0,1,6.39-1.21c3.47,1.23,9.4,3.07,11,1.89a9.5,9.5,0,0,0,2.77-2.8l1.23,1.29C126.54,127.61,123.55,124.38,121.1,123.26Z" style="fill:#263238"></path><path d="M103.35,130.58a9.11,9.11,0,0,1-3-.07,9.05,9.05,0,0,1-3-.58,8.65,8.65,0,0,1,3,.06A8.62,8.62,0,0,1,103.35,130.58Z" style="fill:#263238"></path><path d="M116.69,225.47a6.76,6.76,0,0,1-.13-2.52,15.3,15.3,0,0,1,2.38-6.42c1.46-2.52,3.81-5.1,5.62-8.43a16.15,16.15,0,0,0,1.14-2.65A8.25,8.25,0,0,0,126,204a.84.84,0,0,0-.1-.57c-.08-.12-.22-.16-.46-.13a17.35,17.35,0,0,0-5.87,2.27c-1.9,1.09-3.68,2.31-5.53,3.3-.46.26-.92.49-1.4.71a2.19,2.19,0,0,1-1.66.17,1.48,1.48,0,0,1-.87-1.42,4.16,4.16,0,0,1,.33-1.51,98.09,98.09,0,0,1,4.91-8.92c1.52-2.46,2.85-4.39,3.8-5.7.47-.65.85-1.16,1.11-1.49a3.21,3.21,0,0,1,.42-.5,2.83,2.83,0,0,1-.33.56l-1,1.55c-.89,1.34-2.17,3.29-3.65,5.77s-3.16,5.5-4.78,8.91a3.64,3.64,0,0,0-.28,1.32,1,1,0,0,0,.57,1c.77.27,1.74-.43,2.63-.86,1.81-1,3.59-2.21,5.52-3.31a17.72,17.72,0,0,1,6.06-2.33,1,1,0,0,1,.94.34,1.41,1.41,0,0,1,.19.91,9.38,9.38,0,0,1-.38,1.52,16,16,0,0,1-1.19,2.73c-1.88,3.39-4.25,5.93-5.73,8.39a15.91,15.91,0,0,0-2.49,6.25A15.29,15.29,0,0,0,116.69,225.47Z" style="fill:#fff"></path></g><g id="freepik--speech-bubble--inject-78"><path d="M82.83,152.33l-7.75-13.08A26.79,26.79,0,1,0,66.63,148v.09Z" style="fill:#fff"></path><path d="M82.83,152.33l-16.16-4h.12a26.91,26.91,0,0,1-13.94,4.18,29.08,29.08,0,0,1-8.64-1.27,26.56,26.56,0,0,1-8.42-4.46,27.06,27.06,0,0,1-10.19-18,27.21,27.21,0,0,1,11.62-25.64c.87-.54,1.73-1.1,2.63-1.58l1.38-.66.68-.33.71-.26a27.36,27.36,0,0,1,11.62-1.77,26.85,26.85,0,0,1,18.93,9.63,26.76,26.76,0,0,1,4.77,8.47,27.6,27.6,0,0,1,1.49,8.72,26.67,26.67,0,0,1-3.87,14v-.15l7.27,13.1-7.52-13,0-.07,0-.07A26.53,26.53,0,0,0,79,125.39a27.63,27.63,0,0,0-1.51-8.59A26.43,26.43,0,0,0,54.2,99.08a26.71,26.71,0,0,0-11.38,1.75l-.7.25-.67.33-1.35.64c-.88.47-1.72,1-2.58,1.55a28,28,0,0,0-4.59,4,26.28,26.28,0,0,0-6.82,21.15,26.71,26.71,0,0,0,18.23,22.11,29.19,29.19,0,0,0,8.5,1.28,26.68,26.68,0,0,0,13.79-4l.06,0,.06,0Z" style="fill:#263238"></path><path d="M50.2,113.53,51.05,127a2.19,2.19,0,0,0,2.06,2h0a2.18,2.18,0,0,0,2.3-1.95l1.5-13.56a1.71,1.71,0,0,0-1.73-1.9l-3.29,0A1.73,1.73,0,0,0,50.2,113.53Z" style="fill:#F35650"></path><path d="M56.68,136.66a3.29,3.29,0,1,1-2.08-4.16A3.29,3.29,0,0,1,56.68,136.66Z" style="fill:#F35650"></path></g></svg>