<svg xmlns="http://www.w3.org/2000/svg" width="32" height="32" version="1" id="delhi"><path fill="#e64c65" d="M32 16c0 8.835-7.164 15.973-16 15.973S0 24.835 0 16C0 7.19 7.164.026 16 .026S32 7.19 32 16z"></path><path fill="#fff" d="M12.222 9.868c-.023 0-.046.023-.068.046-.045.067-.136.135-.226.226-.046.068-.068.158-.09.249-.046.022-.069.068-.091.113v.068l-.023.022c-.068.068 0 .204.068.204h.113v.452h-.136c-.068 0-.113.068-.113.136s.068.113.113.09h.159l.067.227c-.067 0-.113.068-.09.136 0 .068.068.113.113.113h.068l.045.158v4.05c.068-.045.136-.09.226-.09v-.295h.227v.25c.09.022.158.044.226.112v-.362h.905v.34c.045.022.09.068.113.113.023-.023.023-.023.023-.045l.09-.091v-.317h.905v.34c.068-.046.136-.09.226-.09v-.25h.905v.25c.023 0 .068-.023.09-.023.046 0 .091 0 .137.022v-.249h.905v.25c.09.022.158.044.226.112v-.362h.905v.34c.022.022.022.022.045.022a.455.455 0 0 1 .09-.18l.091-.091v-.09H19.394v.112a.678.678 0 0 1 .226-.09v-.023h.226v.023c.09.023.159.068.226.113v-3.846l.046-.113h.068c.067 0 .113-.068.113-.113 0-.068-.068-.113-.113-.113l.067-.227h.159c.068 0 .113-.045.113-.113s-.045-.113-.113-.113h-.113v-.452h.113c.09 0 .158-.136.068-.204l-.046-.023v-.045a.172.172 0 0 0-.045-.09.516.516 0 0 0-.136-.272c-.09-.09-.18-.158-.226-.226-.022-.045-.068-.068-.113-.045-.023 0-.045.022-.068.045-.045.068-.136.136-.226.226-.045.068-.068.158-.09.249a.124.124 0 0 0-.068.113v.068l-.046.023c-.068.067 0 .203.068.203h.113v.453h-.135c-.068 0-.114.068-.114.135 0 .068.068.114.114.09h.158l.068.227c-.068 0-.113.068-.09.136.022.068.067.113.112.113h.068l.046.158v1.81h-.227c0-.249-.09-.452-.203-.61-.136-.204-.294-.34-.385-.476-.023-.045-.068-.068-.113-.045-.023 0-.068.023-.068.045-.09.136-.249.272-.385.475-.022.046-.067.114-.09.159-.023-.045-.068-.113-.09-.159-.136-.203-.295-.339-.385-.475-.023-.045-.068-.068-.113-.045-.023 0-.046.023-.068.045-.09.136-.249.272-.385.475-.022.046-.068.114-.09.159h-.023c-.023-.045-.068-.113-.09-.159-.136-.203-.295-.339-.385-.475-.023-.045-.068-.068-.113-.045-.023 0-.068.023-.068.045-.09.136-.249.272-.385.475-.045.046-.067.114-.09.159-.023-.045-.068-.113-.09-.159-.136-.203-.295-.339-.385-.475-.023-.045-.068-.068-.113-.045-.023 0-.068.023-.068.045-.09.136-.25.272-.385.475-.022.046-.068.114-.09.159-.023-.045-.068-.113-.09-.159-.137-.203-.295-.339-.385-.475.022-.045-.046-.068-.091-.045-.023 0-.045.023-.068.045-.09.136-.249.272-.384.475-.023.046-.068.114-.091.159-.023-.045-.068-.113-.09-.159-.136-.203-.295-.339-.385-.475 0-.045-.068-.068-.113-.045-.023 0-.045.023-.068.045-.09.136-.249.272-.385.475a1.039 1.039 0 0 0-.203.611h-.227V12.04l.046-.113h.068c.067 0 .113-.068.113-.113 0-.068-.068-.113-.113-.113l.067-.226h.159c.068 0 .113-.046.113-.113 0-.068-.068-.114-.113-.114h-.113v-.452h.113c.09 0 .158-.136.068-.204l-.046-.022v-.046a.172.172 0 0 0-.045-.09.516.516 0 0 0-.136-.272c-.09-.09-.18-.158-.226-.226 0-.045-.045-.068-.09-.068zm-.09.905h.225v.453h-.226v-.453zm7.737 0h.226v.453h-.226v-.453zm-10.702.453c-.045 0-.09.068-.09.113v.136a.406.406 0 0 0-.158.113c-.25.203-.589.362-.883.543-.136.09-.271.203-.362.34-.068.09-.068.225-.09.339H7.47c-.068 0-.114.045-.114.113v.407l-.203.203c-.068.068 0 .204.09.204h.34v1.923a.678.678 0 0 1 .226-.09v-1.267h.679v1.357a.678.678 0 0 1 .226-.09v-1.267h.905v1.267c.023 0 .068-.023.09-.023.046 0 .09 0 .136.023v-1.267h.679v1.267c.023 0 .068-.023.113-.023s.09 0 .113.023v-1.833h-.226v.34h-.679v-.34H9.62v.34h-.905v-.34h-.226v.34H7.81v-.34h3.303c.09 0 .136-.136.068-.204L11 13.33v-.385c0-.068-.068-.113-.113-.113h-.113a.756.756 0 0 0-.068-.34 1.295 1.295 0 0 0-.362-.339c-.294-.203-.634-.362-.905-.543-.045-.045-.09-.067-.158-.113v-.135c.022-.091-.046-.136-.114-.136zm13.394 0c-.045 0-.09.068-.09.113v.136a.406.406 0 0 0-.159.113c-.249.203-.588.362-.882.543-.136.09-.272.203-.362.34a.59.59 0 0 0-.09.339h-.114c-.068 0-.113.045-.113.113v.407l-.203.203c-.068.068 0 .204.09.204h.34v1.833c.022 0 .067-.023.112-.023.046 0 .091 0 .136.023v-1.267h.679v1.267c.023 0 .068-.023.09-.023.046 0 .091 0 .136.023v-1.267h.905v1.267c.09.022.159.068.226.113v-1.38h.68v1.267c.09.022.158.068.225.113v-1.946h.34c.09 0 .158-.136.09-.204l-.203-.203v-.385c0-.068-.046-.113-.113-.113h-.114a.756.756 0 0 0-.067-.34 1.047 1.047 0 0 0-.362-.339c-.295-.203-.634-.362-.905-.543-.046-.045-.09-.067-.159-.113v-.135c.023-.091-.045-.136-.113-.136zm-10.385.226h.136l-.068.226-.068-.226zm7.738 0h.136l-.068.226-.068-.226zm-10.747.226c.023 0 .068.023.136.09.068.046.136.114.204.16H8.85c.068-.046.135-.091.203-.16.068-.044.136-.09.113-.09zm13.417 0c.022 0 .068.023.135.09.068.046.136.114.204.16h-.633c.067-.046.135-.091.203-.16l.09-.09zm-1.358 2.06h.679v.338h-.679v-.339zm.905 0H23.06v.338h-.905v-.339zm1.131 0h.68v.338h-.68v-.339zm-10.407 0h.815c.022.067.022.135.022.225h-.86c0-.09 0-.158.023-.226zm1.154 0h.815c.022.067.022.135.022.225h-.882a.67.67 0 0 1 .045-.226zm1.131 0h.815c.022.067.022.135.022.225h-.86c0-.09 0-.158.023-.226zm1.131 0h.815c.023.067.023.135.023.225h-.883c.023-.09.023-.158.045-.226zm1.132 0h.814c.023.067.023.135.023.225h-.883c.023-.09.023-.158.046-.226zm1.13 0h.815c.023.067.023.135.023.225h-.86c0-.09 0-.158.023-.226zm-6.176.452h.227v1.357h-.227V14.19zm7.286 0h.226v1.357h-.226V14.19zm-6.358.43c.158 0 .294.067.43.203v.724h-.905V14.8a.7.7 0 0 1 .475-.18zm1.131 0c.159 0 .294.067.43.203v.724h-.905V14.8c.181-.135.34-.18.475-.18zm1.132 0c.158 0 .294.067.452.203v.724h-.905V14.8a.687.687 0 0 1 .453-.18zm1.153 0c.159 0 .294.067.43.203v.724h-.905V14.8a.7.7 0 0 1 .475-.18zm1.132 0c.158 0 .294.067.43.203v.724h-.906V14.8a.7.7 0 0 1 .476-.18zm1.13 0c.16 0 .295.067.453.203v.724h-.905V14.8a.613.613 0 0 1 .453-.18zM7.019 15.772a.324.324 0 0 0-.249.113.324.324 0 0 0-.09.227h-.023a.386.386 0 0 1 0 .226h.023v.566h.226v-.566c0-.045.045-.113.09-.113.068-.023.136.045.136.113v.566h.226V16.09a.328.328 0 0 0-.339-.317zm.905 0a.324.324 0 0 0-.249.113.324.324 0 0 0-.09.227v.022l-.023.023a.193.193 0 0 1 0 .158h.023v.589h.226v-.566c0-.045.045-.113.09-.113.068-.023.136.045.136.113v.566h.226V16.09a.328.328 0 0 0-.339-.317zm.905 0a.324.324 0 0 0-.249.113.324.324 0 0 0-.09.227v.022l-.023.023a.144.144 0 0 1 0 .136l.023.022v.589h.226v-.566c0-.045.023-.09.09-.113.068-.023.159.045.136.113v.566h.226v-.589h.023a.193.193 0 0 1 0-.158l-.023-.023v-.022c.023-.159-.113-.34-.339-.34zm.905 0a.324.324 0 0 0-.249.113.324.324 0 0 0-.09.227v.022a.193.193 0 0 1 0 .159v.611h.226v-.566c0-.045.045-.09.09-.113.068-.023.159.045.136.113v.566h.226v-.611c-.022-.046-.022-.09 0-.159v-.045c.023-.136-.09-.317-.339-.317zm.905 0a.324.324 0 0 0-.249.113.324.324 0 0 0-.09.227v.045a.193.193 0 0 1 0 .158v.589h.226v-.566c0-.045.045-.113.09-.113.068-.023.136.045.136.113v.566h.226v-.566h.046c-.023-.068-.046-.158 0-.226H11c0-.159-.113-.34-.362-.34zm10.452 0a.324.324 0 0 0-.248.113.512.512 0 0 0-.09.204.386.386 0 0 1 0 .226h.022v.589H21v-.566c0-.045.045-.113.09-.113.068-.023.136.045.136.113v.566h.226v-.611c-.022-.046-.022-.09 0-.159v-.022c0-.159-.113-.34-.362-.34zm.928 0a.324.324 0 0 0-.249.113.512.512 0 0 0-.09.204v.023a.193.193 0 0 1 0 .158v.633h.226v-.565c0-.045.045-.113.09-.113.068-.023.136.045.136.113v.566h.226v-.611a.144.144 0 0 1 0-.136v-.023c0-.18-.113-.362-.339-.362zm.905 0a.324.324 0 0 0-.249.113.315.315 0 0 0-.09.204v.023c.022.045 0 .09 0 .158l.022.023v.611h.227v-.566c0-.045.022-.09.09-.113.068-.023.136.045.136.113v.566h.226v-.589a.193.193 0 0 1 0-.158v-.045c-.023-.159-.136-.34-.362-.34zm.905 0a.324.324 0 0 0-.249.113.315.315 0 0 0-.09.204v.023a.193.193 0 0 1 0 .158v.633h.226v-.565c0-.045.023-.09.09-.113.068-.023.136.045.136.113v.566h.226v-.611c-.022-.046 0-.09 0-.136v-.023c.023-.18-.113-.362-.339-.362zm.905 0a.324.324 0 0 0-.249.113.315.315 0 0 0-.09.204v.023a.193.193 0 0 1 0 .158v.633h.226v-.565c0-.045.045-.113.09-.113.068-.023.136.045.136.113v.566h.226v-.566h.023c-.023-.068-.045-.158-.023-.226h-.022c.045-.159-.09-.34-.317-.34zM18.828 16a.324.324 0 0 0-.249.113.324.324 0 0 0-.09.226.144.144 0 0 1 0 .136v.656h.226v-.566c0-.068.045-.113.09-.113.068-.023.136.045.136.113v.566h.226V16.316c.023-.135-.113-.316-.339-.316zm.905 0c-.113 0-.204.045-.249.113-.068.068-.068.158-.068.226v.023l-.022.022a.144.144 0 0 1 0 .136l.022.023v.588h.227v-.566c0-.045.022-.09.09-.113.068-.023.136.045.136.113v.566h.158c-.068-.023-.113-.068-.09-.136.022-.068.068-.113.135-.09h.023v-.34h.023a.386.386 0 0 1 0-.226h-.046c0-.158-.09-.34-.339-.34zm-7.262.226a.324.324 0 0 0-.25.113.478.478 0 0 0-.09.226h-.022a.463.463 0 0 1 0 .249h.022v.543h.226v-.543c0-.068.046-.113.114-.113.067 0 .113.068.113.113v.543h.226v-.588a.193.193 0 0 1 0-.159v-.045a.332.332 0 0 0-.34-.34zm.905 0a.324.324 0 0 0-.25.113.478.478 0 0 0-.09.226v.023l-.022.022c.022.046 0 .09 0 .136l.022.023V17.357h.226v-.543c0-.068.046-.113.114-.113.067 0 .113.068.113.113v.543h.226v-.611c-.023-.045-.023-.09 0-.158v-.045c.023-.136-.113-.317-.34-.317zm.905 0c-.114 0-.204.045-.25.113a.437.437 0 0 0-.067.226v.023l-.023.022c.023.046 0 .09 0 .136l.023.023V17.357h.226v-.543c0-.068.045-.113.113-.113s.113.068.113.113v.543h.227v-.611c-.023-.045-.023-.09 0-.158v-.045c-.023-.136-.136-.317-.362-.317zm.905 0a.324.324 0 0 0-.25.113.478.478 0 0 0-.09.226v.023a.193.193 0 0 1 0 .158v.611h.226v-.543c0-.068.046-.113.114-.113.067 0 .113.068.113.113v.543h.226v-.633a.144.144 0 0 1 0-.136v-.045c.023-.136-.09-.317-.34-.317zm.904 0a.324.324 0 0 0-.248.113.478.478 0 0 0-.09.226v.023l-.023.022a.144.144 0 0 1 0 .136l.022.023V17.357h.226v-.543c0-.068.046-.113.113-.113.068 0 .114.068.114.113v.543h.226v-.611c-.023-.045-.023-.09 0-.158v-.045c.022-.136-.09-.317-.34-.317zm.928 0a.324.324 0 0 0-.249.113.324.324 0 0 0-.09.226v.023a.193.193 0 0 1 0 .158v.611h.226v-.543c0-.068.045-.113.113-.113s.113.068.113.113v.543h.226v-.611c-.022-.045-.022-.09 0-.158v-.045a.328.328 0 0 0-.339-.317zm.905 0a.324.324 0 0 0-.249.113.324.324 0 0 0-.09.226v.045c.022.046.022.09 0 .159V17.357h.226v-.543c0-.068.045-.113.113-.113s.113.068.113.113v.543h.226V16.543a.328.328 0 0 0-.339-.317zM6.68 17.13v1.244a.556.556 0 0 1 .34-.113c.18 0 .338.068.429.204.09.113.136.248.136.384v1.471H6.678v1.131H7.81v-4.321H6.679zm1.357 0v4.321h2.285v-4.321H8.036zm2.512 0v4.321h.904v-1.131h-.678V18.85c0-.136.045-.271.136-.384a.56.56 0 0 1 .43-.204c.045 0 .09.023.112.023V17.13h-.904zm9.773 0v1.153c.023 0 .068-.022.113-.022.181 0 .34.09.43.204.09.113.136.248.136.384v1.471h-.679v1.131h.905v-4.321h-.905zm1.131 0v4.321h2.286v-4.321h-2.286zm2.512.022v4.299h1.131v-1.131h-.905V18.85c0-.136.045-.271.136-.384a.56.56 0 0 1 .769-.09V17.13h-1.131zm-5.475.204V21.452h1.583v-4.095H18.49zm-6.81.226V21.452h6.583v-3.869H11.68zm-2.489.566c.566 0 .905.384.905.701v1.471h-1.81V18.85c0-.158.09-.34.249-.452a.921.921 0 0 1 .656-.25zm13.394 0c.294 0 .497.09.656.226.158.136.249.294.249.453v1.47h-1.81v-1.47c0-.295.34-.657.905-.68zm-13.394.249a.838.838 0 0 0-.52.158.425.425 0 0 0-.159.294v1.245H9.87V18.85c0-.136-.226-.452-.679-.452zm13.394 0c-.453 0-.679.316-.679.452v1.245h1.357V18.85c0-.068-.067-.203-.158-.294a.718.718 0 0 0-.52-.158zm-15.566.09c-.113 0-.204.045-.249.113a.34.34 0 0 0-.09.25v1.244h.678V18.85a.377.377 0 0 0-.09-.249c-.045-.068-.113-.113-.249-.113zm4.321 0c-.113 0-.203.045-.249.113a.34.34 0 0 0-.09.25v1.244h.452v-1.562c-.022-.022-.045-.045-.113-.045zm1.584 0c.294 0 .498.136.634.294a.81.81 0 0 1 .18.52v1.449h-1.583v-1.448c0-.136.045-.34.158-.498a.741.741 0 0 1 .611-.317zm2.059 0c.294 0 .498.136.61.294a.965.965 0 0 1 .182.52v1.449H14.19v-1.448c0-.136.045-.34.158-.498a.787.787 0 0 1 .634-.317zm2.036 0c.294 0 .498.136.634.294a.81.81 0 0 1 .18.52v1.449H16.227v-1.448c0-.136.045-.34.159-.498.135-.158.339-.317.633-.317zm3.416 0c-.067 0-.09.023-.113.045v1.562h.453V18.85a.34.34 0 0 0-.09-.249.51.51 0 0 0-.25-.113zm4.322 0c-.113 0-.204.045-.25.113a.34.34 0 0 0-.09.25v1.244h.679V18.85a.34.34 0 0 0-.09-.249.51.51 0 0 0-.25-.113zm-11.833.25a.46.46 0 0 0-.43.225.722.722 0 0 0-.136.362v1.245h1.154v-1.245a.676.676 0 0 0-.113-.384c-.113-.136-.249-.204-.475-.204zm2.059 0c-.226 0-.362.09-.453.225a.66.66 0 0 0-.113.362v1.245H15.548v-1.245a.721.721 0 0 0-.136-.384c-.09-.136-.204-.204-.43-.204zm2.036 0a.46.46 0 0 0-.43.225.722.722 0 0 0-.136.362v1.245H17.584v-1.245a.918.918 0 0 0-.113-.384c-.09-.136-.227-.204-.453-.204zM6 21.677v.453h20v-.453H6z"></path></svg>