<svg xmlns="http://www.w3.org/2000/svg" width="32" height="32" version="1" id="gateway"><path fill="#e64c65" d="M32 16c0 8.835-7.164 15.973-16 15.973S0 24.835 0 16C0 7.164 7.164.026 16 .026S32 7.164 32 16z"></path><path fill="#fff" stroke="#646464" stroke-miterlimit="282" stroke-width=".028" d="M12.357 9.778c-.113.113-.226.203-.294.294-.09.09-.135.18-.135.362h.882a.478.478 0 0 0-.136-.362c-.09-.09-.203-.181-.317-.294zm7.06 0c-.114.113-.227.203-.295.294-.09.09-.136.18-.136.362h.883a.478.478 0 0 0-.136-.362c-.09-.09-.226-.181-.317-.294zm-.928.746c0 .023 0 .023 0 0v.023-.023zm-6.584.136v1.81h.905v-1.81h-.905zm7.059 0v1.81h.905v-1.81h-.905zm-5.136.023c-.068.068-.158.158-.226.203a.431.431 0 0 0-.113.227h.656c0-.09-.045-.159-.113-.227-.046-.067-.136-.135-.204-.203zm4.118 0c-.068.068-.159.158-.227.203a.29.29 0 0 0-.09.227h.656c0-.09-.045-.159-.113-.227-.068-.067-.158-.135-.226-.203zm-5.724.407c.022 0 .022 0 0 0 .09 0 .158.068.135.113v.34h.114c.067 0 .113.045.113.113s-.068.113-.113.113h-.25c-.067 0-.112-.045-.112-.113v-.453a.273.273 0 0 1 .113-.113zm7.285 0c.068 0 .136.068.136.113v.453c0 .068-.068.113-.114.113h-.226c-.068 0-.113-.045-.113-.113s.068-.113.113-.113h.113v-.34c0-.045.046-.09.09-.113zm-6.018.249v1.131h.249v-.34c0-.044.022-.09.067-.112.068-.023.159.045.159.113v.34h.226v-1.132h-.701zm4.117 0V12.47h.227v-.34c0-.045.022-.09.09-.113.068-.023.158.045.158.113v.34h.227V11.338h-.702zm-5.701 1.357v1.426c0 .022.023.022.023.045v.34h.226v-1.81h-.249zm.475 0v1.81h.453v-1.81h-.453zm.679 0v1.81h5.679v-1.81h-5.68zm5.905 0v1.81h.452v-1.81h-.452zm.679 0v1.81h.226v-1.81h-.226zM6.905 14.28v.226h4.774v-.226H6.905zm13.19 0v.226H25.095v-.068c-.023-.022-.023-.067 0-.113v-.068h-5v.023zm-8.167.453v1.47c0 .023 0 .023-.023.023v.52h.249V14.71h-.226v.023zm.452 0v2.036h.453v-2.036h-.453zm.679 0v2.036h.34c.044 0 .09.022.112.068v-.634c0-.045.046-.113.09-.113h4.797c.068 0 .113.068.113.113v.634a.124.124 0 0 1 .113-.068h.136v-2.036H13.06zm5.905 0v2.036h.452v-2.036h-.452zm.679 0v2.036h.226V14.71h-.226v.023zm-12.512 0v1.357h4.548v-1.357H7.13zm12.964 0v1.357h4.774v-1.357h-4.774zM6.679 16.339v.452h5v-.452h-5zm7.059 0v5h.452v-2.263c0-.067.023-.09.045-.113l.068-.068c.045-.022.068-.067.113-.09 0-.747.113-1.29.362-1.652.272-.384.679-.543 1.222-.543.543 0 .928.272 1.176.702.227.407.34.95.43 1.516.046.022.068.067.113.09l.068.068a.173.173 0 0 1 .046.113v2.285h.452V16.34h-4.547zm6.357 0v.452h5.226v-.452h-5.226zm-2.398.204c.18 0 .34.158.34.339 0 .18-.16.34-.34.34a.348.348 0 0 1-.34-.34c.023-.181.159-.34.34-.34zm-3.394.022c.181 0 .34.159.34.34 0 .18-.159.339-.34.339a.348.348 0 0 1-.34-.34c0-.203.16-.339.34-.339zM16 16.77c-.475 0-.814.136-1.018.452-.226.317-.34.837-.34 1.584 0 .023-.022.068-.022.09-.045.046-.113.091-.158.136l-.046.045v2.24h.227V19.96c0-.068.022-.09.067-.113.023-.023.046-.023.068-.046.023-.022.046 0 .068-.022.023-.52.113-.973.317-1.312.204-.34.498-.566.86-.566s.678.226.882.566c.204.339.294.769.317 1.312.022.022.045 0 .045.022.023.023.045.023.068.046.022.022.068.045.068.113v1.357h.226v-2.24l-.023-.022c-.045-.045-.113-.09-.158-.159-.023-.022-.023-.045-.023-.067-.068-.589-.18-1.109-.407-1.471-.249-.362-.543-.588-1.018-.588zm1.697 0c-.068 0-.113.045-.113.113s.045.113.113.113.113-.045.113-.113-.045-.113-.113-.113zm-3.394.022c-.068 0-.113.046-.113.114 0 .067.045.113.113.113s.113-.046.113-.113c-.022-.068-.068-.114-.113-.114zm-.814.136c-.023.045-.068.09-.113.068h-.09v4.321h.225v-4.389h-.022zm5.022 0v4.39h.227v-4.322h-.114c-.045 0-.113-.023-.113-.068zm-6.832.068v4.321h.226v-4.321h-.226zm.452 0v4.321h.453v-4.321h-.453zm.702 0v4.321h.226v-4.321h-.226zm6.13 0v4.321h.227v-4.321h-.226zm.453 0v4.321h.453v-4.321h-.453zm.679 0v4.321h.226v-4.321h-.226zm-12.964 0v.905h.905v-.43h3.213v3.846h.226v-4.321H7.131zm13.417 0v4.321h.226V17.47h3.19v.453h.905v-.905h-4.321v-.023zm-12.263.701v3.643h.249V19.46c0-.068.023-.09.045-.113l.045-.045h.023c.045-.679.475-1.2.996-1.2.52 0 .95.498.995 1.2h.023l.045.045c.022.023.068.023.068.113v1.878h.249v-3.643H8.285zm12.715 0v3.643h.249V19.46c0-.068.022-.09.045-.113l.045-.045h.023c.045-.679.475-1.2.995-1.2s.95.498.996 1.2h.023l.045.045c.022.023.068.023.068.113v1.878h.249v-3.643H21zm-5 .43c-.271 0-.498.159-.679.453-.18.294-.294.746-.294 1.29 0 .067-.045.112-.113.112.023 0-.023 0-.045.023v1.313h2.285V19.98c-.023-.022-.068-.022-.045-.022-.068 0-.114-.045-.114-.113 0-.543-.113-.973-.294-1.29-.203-.271-.43-.43-.701-.43zm-8.869.023v.679h.905v-.68h-.905zm16.833 0v.679h.905v-.68h-.905zm-14.321.18c-.385 0-.77.408-.77 1.064 0 .068-.068.113-.113.113v1.81h.453v-.973c0-.045.022-.067.045-.09l.023-.023c.022-.135.045-.271.09-.362.068-.113.181-.203.317-.203s.249.09.317.203c.045.09.067.227.067.362.023 0 .023.023.023.023.023.023.045.023.045.09v.973h.453v-1.81c-.068 0-.113-.045-.113-.113-.046-.656-.453-1.063-.837-1.063zm12.737 0c-.385 0-.792.408-.792 1.064 0 .068-.068.113-.113.113v1.81h.453v-.973c0-.067.022-.067.045-.09l.022-.023c.023-.135.023-.249.068-.362.068-.113.181-.203.317-.203s.249.09.317.203c.045.09.068.227.068.362.022 0 .022 0 .022.023.023.023.046.045.046.09v.973h.452v-1.81c-.068 0-.113-.045-.113-.113-.023-.656-.407-1.063-.792-1.063zm-15.249.725v.679h.905v-.68h-.905zm16.833 0v.679h.905v-.68h-.905zm-14.321.837c-.046 0-.068.023-.114.09-.022.068-.067.204-.067.34 0 .045-.023.068-.046.09v.905h.453v-.905c-.023-.022-.045-.045-.045-.09 0-.159-.023-.272-.046-.34-.045-.067-.09-.09-.135-.09zm12.714 0c-.045 0-.067.023-.113.09-.022.068-.068.204-.068.34 0 .045-.022.068-.045.09v.905h.453v-.905c-.023-.022-.046-.022-.046-.068 0-.158-.022-.271-.067-.339-.023-.09-.068-.113-.114-.113zm-15.226.068v.679h.905v-.68h-.905zm16.833 0v.679h.905v-.68h-.905zm-16.833.905v.452h.905v-.452h-.905zm16.833 0v.452h.905v-.452h-.905zM6 21.543v.678h20v-.678H6z"></path></svg>