<?xml version="1.0" encoding="utf-8"?><svg xml:space="preserve" viewBox="0 0 100 100" y="0" x="0" xmlns="http://www.w3.org/2000/svg" id="圖層_1" version="1.1" width="200px" height="200px" xmlns:xlink="http://www.w3.org/1999/xlink" style="width:100%;height:100%;background-size:initial;background-repeat-y:initial;background-repeat-x:initial;background-position-y:initial;background-position-x:initial;background-origin:initial;background-color:initial;background-clip:initial;background-attachment:initial;animation-play-state:paused" ><g class="ldl-scale" style="transform-origin:50% 50%;transform:rotate(0deg) scale(0.8, 0.8);animation-play-state:paused" ><g style="animation-play-state:paused" ><path d="M23.3 20.9h53.4v66.4H23.3z" fill="#e0e0e0" style="fill:rgb(243, 86, 80);animation-play-state:paused" ></path>
<path d="M13.3 87.4h73.3v5.1H13.3z" fill="#e0e0e0" style="fill:rgb(243, 86, 80);animation-play-state:paused" ></path></g>
<g style="animation-play-state:paused" ><path d="M46.5 39.7h6.9v6.9h-6.9z" fill="#333" style="fill:rgb(252, 252, 252);animation-play-state:paused" ></path>
<path d="M31.5 39.7h6.9v6.9h-6.9z" fill="#333" style="fill:rgb(252, 252, 252);animation-play-state:paused" ></path>
<path d="M61.6 39.7h6.9v6.9h-6.9z" fill="#333" style="fill:rgb(252, 252, 252);animation-play-state:paused" ></path>
<path d="M46.5 54.7h6.9v6.9h-6.9z" fill="#333" style="fill:rgb(252, 252, 252);animation-play-state:paused" ></path>
<path d="M31.5 54.7h6.9v6.9h-6.9z" fill="#333" style="fill:rgb(252, 252, 252);animation-play-state:paused" ></path>
<path d="M61.6 54.7h6.9v6.9h-6.9z" fill="#333" style="fill:rgb(252, 252, 252);animation-play-state:paused" ></path></g>
<g style="animation-play-state:paused" ><circle stroke-width="3.142" fill="#fff" stroke-miterlimit="10" stroke="#e0e0e0" r="12.7" cy="20.2" cx="50" style="stroke:rgb(243, 86, 80);fill:rgb(255, 255, 255);animation-play-state:paused" ></circle>
<path d="M57.9 18h-5.7v-5.7h-4.4V18h-5.7v4.4h5.7v5.7h4.4v-5.7h5.7z" fill="#e15b64" style="fill:rgb(243, 86, 80);animation-play-state:paused" ></path></g>
<g style="animation-play-state:paused" ><path d="M39.5 68h21v19.3h-21z" fill="#a0c8d7" style="fill:rgb(255, 255, 255);animation-play-state:paused" ></path>
<path d="M39.5 76.1l8.1-8.1h-3.5l-4.6 4.7z" fill="#fff" style="fill:rgb(255, 255, 255);animation-play-state:paused" ></path>
<path d="M50 68h10.5v19.3H50z" fill="#77a4bd" style="fill:rgb(243, 244, 245);animation-play-state:paused" ></path>
<path d="M39.5 82.5L53.9 68h-3.4l-11 11z" fill="#fff" style="fill:rgb(255, 255, 255);animation-play-state:paused" ></path></g>
<metadata xmlns:d="https://loading.io/stock/" style="animation-play-state:paused" ><d:name style="animation-play-state:paused" >hospital</d:name>
<d:tags style="animation-play-state:paused" >hospital,clinic,building,emergency room</d:tags>
<d:license style="animation-play-state:paused" >by</d:license>
<d:slug style="animation-play-state:paused" >d8oxna</d:slug></metadata></g><!-- generated by https://loading.io/ --></svg>