<svg xmlns="http://www.w3.org/2000/svg" viewBox="0 0 500 500"><g id="freepik--background-simple--inject-8"><path d="M462,210.74c-.47-18.55-1.6-37-9-55-18.68-45.52-54.45-83.94-96.49-109C320.16,25,266,8.72,226,31c-22.4,12.5-40.51,31.67-60.46,47.51-9,7.12-18.58,14.7-29.4,18.8-13.88,5.27-28.79,4.83-42.58,11-33.19,14.83-65.24,42.11-73.26,79.6-9.61,45,17.72,85.87,28.3,128.33,5.75,23.07,3.6,44-2.21,66.81-4.54,17.78-18.9,42.31-17.39,60.85A79.28,79.28,0,0,0,33,464H464c7.41,0,18.73-52.6,19.78-57.53,5.9-27.67,8.56-56.49,3.88-84.56-3.47-20.8-16.61-38.15-21.3-58.44C462.31,245.94,462.44,228.29,462,210.74Z" style="fill:#F35650"></path><path d="M462,210.74c-.47-18.55-1.6-37-9-55-18.68-45.52-54.45-83.94-96.49-109C320.16,25,266,8.72,226,31c-22.4,12.5-40.51,31.67-60.46,47.51-9,7.12-18.58,14.7-29.4,18.8-13.88,5.27-28.79,4.83-42.58,11-33.19,14.83-65.24,42.11-73.26,79.6-9.61,45,17.72,85.87,28.3,128.33,5.75,23.07,3.6,44-2.21,66.81-4.54,17.78-18.9,42.31-17.39,60.85A79.28,79.28,0,0,0,33,464H464c7.41,0,18.73-52.6,19.78-57.53,5.9-27.67,8.56-56.49,3.88-84.56-3.47-20.8-16.61-38.15-21.3-58.44C462.31,245.94,462.44,228.29,462,210.74Z" style="fill:#fff;opacity:0.7000000000000001"></path></g><g id="freepik--Character--inject-8"><path d="M140.9,448.28l1.95,5.54s5.87,2.28,6.85,3.91,1,7.16,1,7.16H126.56s-.65-5.21-.65-8.14v-6.84Z" style="fill:#fff"></path><path d="M150.67,465.39H126.56a.51.51,0,0,1-.5-.43c0-.22-.65-5.28-.65-8.21v-6.84a.5.5,0,0,1,.44-.5l15-1.63a.5.5,0,0,1,.53.33l1.88,5.32c1.19.48,5.92,2.44,6.87,4s1,6.84,1,7.42A.5.5,0,0,1,150.67,465.39Zm-23.67-1h23.17c0-1.77-.23-5.29-.9-6.41s-4.39-2.84-6.6-3.7a.51.51,0,0,1-.29-.3l-1.82-5.16-14.15,1.53v6.4C126.41,459.12,126.85,463.08,127,464.39Z" style="fill:#263238"></path><path d="M126.27,462.29h24.31c.09,1.42.09,2.6.09,2.6H126.56S126.42,463.78,126.27,462.29Z" style="fill:#fff"></path><path d="M150.67,465.39H126.56a.51.51,0,0,1-.5-.43s-.14-1.13-.29-2.62a.56.56,0,0,1,.13-.39.52.52,0,0,1,.37-.16h24.31a.49.49,0,0,1,.49.46c.1,1.43.1,2.59.1,2.64a.48.48,0,0,1-.5.5Zm-23.67-1h23.17c0-.38,0-.95-.06-1.6H126.83C126.9,463.46,127,464,127,464.39Z" style="fill:#263238"></path><path d="M138.25,441.11l-1.63-132.29-29,1.56-29-1.56L77,441.11s-2.93,2.6-2.93,3.91v3.26l.33,1.63s7.16.65,8.79,1,5.87-1,5.87-1,2-10.11,2-11.08S106.64,328.7,106.64,328.7l1-.14,1,.14s15.64,109.15,15.64,110.13,2,11.08,2,11.08,4.24,1.3,5.87,1,8.8-1,8.8-1l.32-1.63V445C141.18,443.71,138.25,441.11,138.25,441.11Z" style="fill:#263238"></path><path d="M131.43,451.43a23.59,23.59,0,0,1-5.38-1.05.5.5,0,0,1-.35-.38c-.2-1-2-10.18-2-11.17-.1-1.61-14.58-102.71-15.58-109.69l-.54-.08-.54.08c-1,7-15.48,108.09-15.58,109.7,0,1-1.76,10.12-2,11.16a.51.51,0,0,1-.34.38c-.45.14-4.41,1.33-6.12,1s-8.67-1-8.74-1a.49.49,0,0,1-.44-.4l-.33-1.63V445c0-1.34,2.18-3.44,2.94-4.14l1.62-132.07a.52.52,0,0,1,.16-.36.46.46,0,0,1,.37-.13l29,1.56,28.94-1.56a.47.47,0,0,1,.37.13.52.52,0,0,1,.16.36l1.63,132.07c.75.7,2.93,2.8,2.93,4.14v3.26l-.33,1.72a.51.51,0,0,1-.45.4c-.07,0-7.16.66-8.74,1A3.32,3.32,0,0,1,131.43,451.43Zm-4.8-1.92c1.32.39,4.19,1.11,5.33.88,1.44-.28,7-.81,8.48-.95l.25-1.26V445c0-.74-1.62-2.52-2.76-3.54a.48.48,0,0,1-.17-.37l-1.62-131.76-28.48,1.53-28.53-1.53L77.49,441.11a.48.48,0,0,1-.17.37c-1.14,1-2.76,2.8-2.76,3.54v3.26l.24,1.16c1.5.14,7,.66,8.48.95,1.14.23,4-.49,5.33-.88.79-4,1.89-10,1.89-10.68,0-1,14-99,15.65-110.21a.49.49,0,0,1,.42-.42l1-.14h.14l1,.14a.49.49,0,0,1,.42.42c1.6,11.18,15.65,109.22,15.65,110.21C124.74,439.49,125.85,445.47,126.63,449.51Zm14.23.4h0Z" style="fill:#263238"></path><path d="M149.3,234s9.26,4.27,12.35,6.41S164,250.66,165,255.17s2.13,7.36,1,8.55-2.85,3.32-2.85,3.32,1.18,11.4,1.66,20.19-4.28,11.87-8.08,14.25-8.07,2.85-15.91,2.37-13.29-4.27-14-5.94-7.36-19.94-4.51-30.39,12.35-32.77,16.86-35.15S149.3,234,149.3,234Z" style="fill:#263238"></path><path d="M145.54,304.52c-1.44,0-3-.06-4.82-.17-7.93-.48-13.61-4.32-14.44-6.24-.07-.18-7.58-19.52-4.53-30.72,2.85-10.44,12.36-33,17.11-35.46,4.58-2.41,10.13,1.28,10.69,1.67.76.35,9.37,4.35,12.39,6.44,2.31,1.6,2.64,5.92,3,10.11a38.9,38.9,0,0,0,.57,4.92c.23,1.11.48,2.12.7,3,.72,2.94,1.2,4.88.11,6s-2.28,2.61-2.69,3.12c.16,1.57,1.21,11.95,1.65,20,.49,9.2-4.59,12.38-8.31,14.7C154,303.74,150.83,304.52,145.54,304.52Zm-3.28-72.39a6.15,6.15,0,0,0-2.93.69c-4.12,2.16-13.64,23.91-16.62,34.83-2.66,9.77,3.29,27.26,4.49,30.07.64,1.47,6,5.17,13.58,5.63,8.14.5,12.08-.09,15.62-2.3,3.7-2.31,8.3-5.19,7.84-13.79s-1.65-20.05-1.66-20.16a.51.51,0,0,1,.1-.36c.07-.09,1.7-2.18,2.89-3.37.7-.7.25-2.52-.37-5-.23-.91-.48-1.93-.71-3.06a39.63,39.63,0,0,1-.58-5.05c-.29-3.76-.62-8-2.54-9.36-3-2.09-12.18-6.33-12.28-6.37l-.08-.05A13.74,13.74,0,0,0,142.26,232.13Z" style="fill:#263238"></path><path d="M77.59,297.68l-1.66,11.87s9.26,5.7,16.14,8.07,15,4.28,15,4.28l1.9-4,1.43,4.51s4.27-.47,11.16-3.8a180.33,180.33,0,0,0,16.86-10l-.24-12.11-4.51-79.08-18-7.83L98,211l-13.3,7.36Z" style="fill:#fff"></path><path d="M110.36,322.87a.5.5,0,0,1-.48-.35l-1-3.29-1.35,2.88a.5.5,0,0,1-.57.27c-.08,0-8.18-1.93-15-4.28S75.76,310,75.66,310a.52.52,0,0,1-.23-.5l1.66-11.86,7.12-79.3a.52.52,0,0,1,.26-.39l13.3-7.37a.66.66,0,0,1,.2-.06l17.57-1.42a.47.47,0,0,1,.24,0L133.83,217a.5.5,0,0,1,.3.43l4.51,79.07.24,12.13a.53.53,0,0,1-.22.43,185.06,185.06,0,0,1-16.92,10c-6.89,3.33-11.15,3.83-11.33,3.85Zm-1.43-5.51h0a.5.5,0,0,1,.44.35l1.3,4.1a41.3,41.3,0,0,0,10.59-3.69,177.15,177.15,0,0,0,16.57-9.78l-.23-11.84-4.49-78.75-17.65-7.66-17.34,1.4-13,7.18-7.1,79.05v0l-1.61,11.54c1.59,1,9.67,5.76,15.77,7.86,5.92,2.05,12.81,3.76,14.51,4.17l1.73-3.67A.49.49,0,0,1,108.93,317.36ZM77.59,297.68h0Z" style="fill:#263238"></path><path d="M126.64,214.38l-11.06-4.8L98,211l-6.76,3.75c1.26,4.37,6,17.82,16.5,18.81C117.55,234.49,124.18,220.57,126.64,214.38Z" style="fill:#fff"></path><path d="M108.67,234.11c-.32,0-.64,0-1-.05C96.82,233,92,219.12,90.77,214.88a.48.48,0,0,1,.24-.57l6.76-3.75a.66.66,0,0,1,.2-.06l17.57-1.42a.47.47,0,0,1,.24,0l11,4.8a.5.5,0,0,1,.27.64C124.73,220.54,118.3,234.11,108.67,234.11ZM91.84,215c1.34,4.48,6,17.13,16,18.07,9.26.87,15.7-12.23,18.2-18.42l-10.49-4.55-17.34,1.4Z" style="fill:#263238"></path><path d="M97.53,212.56s4.77,6.37,9.37,8.13,8.66-6.18,9.89-8.3,1.59-2.83,1.59-2.83L98,211S95.76,210.27,97.53,212.56Z" style="fill:#263238"></path><path d="M108.27,221.46a4.31,4.31,0,0,1-1.55-.3c-4.67-1.79-9.37-8-9.59-8.29-.51-.67-1-1.51-.63-2.11s1.2-.37,1.57-.26l20.28-1.44a.48.48,0,0,1,.45.22.5.5,0,0,1,0,.5s-.37.75-1.6,2.86l-.32.55C115.44,215.78,112.23,221.46,108.27,221.46ZM97.38,211.39a3.87,3.87,0,0,0,.55.87h0c0,.07,4.74,6.27,9.15,8,3.85,1.48,7.57-5.07,9-7.54l.32-.55c.54-.92.91-1.57,1.15-2L98.05,211.5a.4.4,0,0,1-.19,0A2.13,2.13,0,0,0,97.38,211.39Z" style="fill:#263238"></path><path d="M115.58,209.58s-.47,102.11.24,102.34,22.8-8.78,24-9.73a24.79,24.79,0,0,0,2.62-2.61l.47-38.24s7.36,4.75,9.5,5.23,8.79-.71,9.26-3.33-7.84-24-10-30.63a123.68,123.68,0,0,0-6.41-15c-1-2.14-10.45-3.32-16.15-5S115.58,209.58,115.58,209.58Z" style="fill:#F35650"></path><path d="M115.8,312.42l-.14,0c-.52-.18-.78-.26-.73-51.74,0-25.26.15-50.83.15-51.08a.53.53,0,0,1,.18-.39.51.51,0,0,1,.41-.1c.08,0,7.93,1.44,13.59,3.09,1.79.53,4,1,6.13,1.48,6,1.3,9.63,2.21,10.33,3.79.21.47.54,1.14.95,2a101.28,101.28,0,0,1,5.48,13c.64,2,1.82,5.25,3.18,9,4.06,11.27,7.14,20,6.81,21.84a3.12,3.12,0,0,1-1.52,2,14.1,14.1,0,0,1-8.34,1.74c-1.8-.4-6.94-3.58-8.9-4.81l-.46,37.33a.53.53,0,0,1-.12.32,24.9,24.9,0,0,1-2.68,2.68c-.77.61-8.09,3.67-12.3,5.38C118,312,116.22,312.42,115.8,312.42Zm0-1Zm.23-101.25c-.15,33.43-.31,95.23.15,101.16,3.18-.93,22.22-8.71,23.26-9.54a22.92,22.92,0,0,0,2.43-2.41l.47-38.05a.5.5,0,0,1,.27-.44.52.52,0,0,1,.5,0c2,1.31,7.66,4.79,9.34,5.16a13.31,13.31,0,0,0,7.57-1.59,2.21,2.21,0,0,0,1.09-1.34c.31-1.69-3.95-13.5-6.77-21.32-1.36-3.79-2.54-7.06-3.19-9.07a100.8,100.8,0,0,0-5.43-12.9c-.41-.84-.75-1.52-1-2-.55-1.23-5.59-2.33-9.64-3.22-2.15-.47-4.37-.95-6.19-1.49C124.27,211.77,118,210.54,116.08,210.18Z" style="fill:#263238"></path><path d="M115.82,230.47l2.61-3.79s6.41,5.46,7.13,3.56-4.18-17.24-5-20.19-5.22-2.85-5.46-1.66S115.82,230.47,115.82,230.47Z" style="fill:#F35650"></path><path d="M124.94,231.13c-1.71,0-5.06-2.61-6.41-3.72l-2.3,3.35a.51.51,0,0,1-.55.2.52.52,0,0,1-.36-.46c-.1-2.15-.94-21-.7-22.21.13-.68.95-1.13,2.12-1.17a4.11,4.11,0,0,1,4.31,2.8c.16.56.45,1.55.83,2.82,3,9.86,4.68,16.26,4.14,17.67a1,1,0,0,1-.75.68A1.15,1.15,0,0,1,124.94,231.13Zm-6.51-5a.55.55,0,0,1,.33.12c2.36,2,5.43,4.05,6.26,3.84.59-1.45-2.82-12.83-4.1-17.11-.38-1.27-.68-2.27-.83-2.83-.47-1.72-2.31-2.11-3.32-2.08-.83,0-1.16.31-1.17.38-.16.82.28,12.18.65,20.47l1.77-2.57a.5.5,0,0,1,.35-.21Z" style="fill:#263238"></path><path d="M129.12,212.66s-.48,34,1.19,42.75,12.58,32.77,12.58,32.77v-9s-6.41-23.5-7.36-30.39-.71-34.43-.71-34.43Z" style="fill:#263238"></path><path d="M142.89,288.68a.49.49,0,0,1-.45-.29c-.45-1-11-24.14-12.63-32.89s-1.21-41.45-1.19-42.84a.52.52,0,0,1,.2-.4.53.53,0,0,1,.44-.08l5.7,1.67a.5.5,0,0,1,.36.48c0,.28-.23,27.59.71,34.36s7.28,30.1,7.34,30.33a.34.34,0,0,1,0,.14v9a.5.5,0,0,1-.39.49Zm-13.28-75.35c-.05,4.77-.32,34,1.19,42,1.34,7.09,8.9,24.46,11.59,30.52v-6.62c-.44-1.63-6.43-23.67-7.35-30.39-.9-6.49-.75-30.66-.73-34.13Z" style="fill:#263238"></path><path d="M100.11,212.82s.38,95.76.38,97.1-2.1.57-3.62-.19-16.79-5.92-21-7.63-4.77-.58-4.58-2.48.2-8.21.2-9.16,1.33-20.41,1.33-20.41-9,3.24-14.31,1.14-7.82-4.57-7.24-6.48S62,238,62.72,235.71s2.67-15.26,3.82-16.4,26.89-7.63,28.42-8.78a5.28,5.28,0,0,1,3.62-.95C99.15,209.58,99.73,209.2,100.11,212.82Z" style="fill:#F35650"></path><path d="M99.68,311.15a7.25,7.25,0,0,1-3-1c-.72-.36-4.87-1.82-9.27-3.37-4.69-1.66-9.54-3.37-11.68-4.24a17.8,17.8,0,0,0-3.36-1c-1.27-.27-1.67-.49-1.52-2,.17-1.7.19-6.94.19-9.11,0-.86,1-16.07,1.28-19.7-2.27.73-9.32,2.72-13.94.9-5.42-2.13-8.24-4.78-7.54-7.09.3-1,3.25-8.38,6.1-15.49,2.57-6.41,5-12.46,5.35-13.52.27-.83.73-3.24,1.21-5.8,1.15-6,1.95-10,2.72-10.8.62-.62,5.27-2,15-4.72,5.71-1.61,12.82-3.61,13.48-4.11a5.57,5.57,0,0,1,3.72-1h.32c1.17-.07,1.6.76,1.91,3.69v0c0,1,.38,95.78.38,97.1a1.13,1.13,0,0,1-.52,1A1.38,1.38,0,0,1,99.68,311.15Zm-26.85-41.6a.47.47,0,0,1,.3.1.49.49,0,0,1,.2.43c-.46,6.73-1.33,19.64-1.33,20.38,0,2.19,0,7.46-.2,9.21a1.66,1.66,0,0,0,0,.68,3.17,3.17,0,0,0,.74.2,19.19,19.19,0,0,1,3.53,1.08c2.11.87,7.17,2.65,11.64,4.23s8.6,3,9.38,3.42c1.83.91,2.66.93,2.85.82,0,0,0-.08,0-.18,0-1.31-.37-95.06-.38-97.07-.3-2.81-.66-2.78-.85-2.78h-.41a4.58,4.58,0,0,0-3.09.85c-.77.58-5.75,2-13.81,4.27-6.18,1.74-13.88,3.91-14.57,4.47s-1.75,6.66-2.43,10.28c-.52,2.7-1,5-1.26,5.92-.36,1.1-2.79,7.16-5.36,13.58-2.71,6.76-5.78,14.42-6.08,15.4-.39,1.3,1.2,3.62,7,5.88,5.1,2,13.86-1.12,13.95-1.15A.51.51,0,0,1,72.83,269.55Z" style="fill:#263238"></path><path d="M72.83,270.55h-.12a.51.51,0,0,1-.37-.61c0-.19,4.78-19.48,5.34-21.93a12.62,12.62,0,0,0-.16-4.12.5.5,0,1,1,1-.14,14.13,14.13,0,0,1,.15,4.49c-.57,2.45-5.3,21.74-5.34,21.94A.5.5,0,0,1,72.83,270.55Z" style="fill:#263238"></path><path d="M77.38,240.64a.51.51,0,0,1-.49-.4c-.29-1.45-.54-2.5-.54-2.5a.5.5,0,0,1,.37-.6.49.49,0,0,1,.6.37s.26,1.06.55,2.53a.51.51,0,0,1-.39.59Z" style="fill:#263238"></path><path d="M97.44,208.25a9.39,9.39,0,0,0-1.91,3.81,87,87,0,0,1-4,13.74,48.47,48.47,0,0,0-1.9,4.57,4.58,4.58,0,0,0,3.43-.38c1.72-1,4.58-2.48,4.58-2.48L99.92,230l.19-17.17S100.3,206.72,97.44,208.25Z" style="fill:#F35650"></path><path d="M90.87,231a5,5,0,0,1-1.41-.19.48.48,0,0,1-.29-.25.5.5,0,0,1,0-.38,50.21,50.21,0,0,1,1.93-4.64A85.61,85.61,0,0,0,95,212a9.91,9.91,0,0,1,2-4.08.64.64,0,0,1,.15-.13,1.83,1.83,0,0,1,1.93-.06c1.56,1,1.49,4.68,1.48,5.1L100.42,230a.51.51,0,0,1-.32.46.51.51,0,0,1-.55-.13l-2-2.2c-.8.44-2.87,1.55-4.23,2.3A5,5,0,0,1,90.87,231Zm-.59-1a4.08,4.08,0,0,0,2.53-.45c1.72-1,4.58-2.48,4.58-2.48a.52.52,0,0,1,.61.1l1.43,1.56.18-15.91c0-1.37-.2-3.73-1-4.23-.08-.05-.32-.2-.84,0A8.72,8.72,0,0,0,96,212.12,89.5,89.5,0,0,1,92,226C91.1,227.9,90.55,229.29,90.28,230Z" style="fill:#263238"></path><path d="M92.1,193.37s-3.06-4-3.25-1.72-.76,5.15.77,7.06a9.25,9.25,0,0,0,2.67,2.48s2.48,6.48,4.19,8.2,2.67,5.53,7.44,7.44,7.25.76,9.73-1c1.2-.83,5.53-7.44,6.11-8.78s.76-6.1.76-6.1,3.24-4.58,3.43-7.06-.19-4-1-4h-1.72s2.29-9.34,2.1-12.4-5.72-9.15-9.92-12-13-1.91-17.55.95-9.34,9-8.2,11.45S92.1,193.37,92.1,193.37Z" style="fill:#fff"></path><path d="M108.39,218.32a12.41,12.41,0,0,1-4.65-1,12.55,12.55,0,0,1-6.24-5.67,11.05,11.05,0,0,0-1.37-1.88c-1.63-1.63-3.83-7.15-4.25-8.21A10.8,10.8,0,0,1,89.23,199c-1.44-1.8-1.19-4.26-1-6.44,0-.33.07-.66.1-1,.06-.78.42-1,.72-1.13.58-.17,1.33.33,2,1-1-3.74-3-11.52-3.84-13.34-1.3-2.81,3.61-9.1,8.39-12.08s13.62-4,18.09-1c3.9,2.66,9.92,9,10.14,12.4.17,2.67-1.45,9.77-2,11.93H123a1.11,1.11,0,0,1,.81.37c.73.8.75,2.71.64,4.18-.18,2.38-2.91,6.42-3.44,7.18,0,.92-.24,4.85-.79,6.14s-5,8.09-6.28,9A9.31,9.31,0,0,1,108.39,218.32Zm-19-26.87s0,.1,0,.24c0,.32-.06.66-.09,1-.21,2-.44,4.22.75,5.71a9.13,9.13,0,0,0,2.5,2.34.49.49,0,0,1,.24.27c0,.06,2.47,6.4,4.09,8a12.11,12.11,0,0,1,1.5,2,11.79,11.79,0,0,0,5.77,5.29c4.66,1.86,7,.69,9.26-.91,1-.71,5.34-7.18,5.93-8.56A28.22,28.22,0,0,0,120,201a.51.51,0,0,1,.09-.27c0-.05,3.17-4.5,3.34-6.81.16-2.05-.1-3.12-.38-3.42l-1.79,0a.49.49,0,0,1-.39-.19.48.48,0,0,1-.09-.43c0-.09,2.27-9.3,2.08-12.24s-5.48-8.76-9.7-11.64-12.65-1.75-17,1c-4.62,2.89-9,8.75-8,10.82,1.15,2.49,4.29,15,4.42,15.54a.5.5,0,0,1-.88.42A7.4,7.4,0,0,0,89.38,191.45Z" style="fill:#263238"></path><path d="M108.11,207.06a3.59,3.59,0,0,1-.71-.08,4.93,4.93,0,0,1-3.17-1.89.51.51,0,0,1,.17-.69.5.5,0,0,1,.69.17,4,4,0,0,0,2.53,1.43,2.28,2.28,0,0,0,2.52-1.38.5.5,0,0,1,.66-.25.49.49,0,0,1,.25.66A3.39,3.39,0,0,1,108.11,207.06Z" style="fill:#263238"></path><path d="M107.75,210.08a7,7,0,0,1-4.36-1.31.49.49,0,0,1-.06-.7.5.5,0,0,1,.7-.07,6.19,6.19,0,0,0,3.72,1.08,5.54,5.54,0,0,0,3.68-1.28.5.5,0,0,1,.71.71A6.49,6.49,0,0,1,107.75,210.08Z" style="fill:#263238"></path><path d="M92.1,193.87a.51.51,0,0,1-.39-.19l-.39-.48a.5.5,0,0,1,.08-.7.5.5,0,0,1,.7.07c.24.29.39.49.39.49a.5.5,0,0,1-.08.7A.53.53,0,0,1,92.1,193.87Z" style="fill:#263238"></path><path d="M113.46,165.52c-4.2-2.86-13-1.91-17.55.95s-9.34,9-8.2,11.45,4.39,15.45,4.39,15.45a1.82,1.82,0,0,0,2.1-1c.57-1.33-.39-3.24.57-5,.77-1.39,3-1.28,4.37-1.6-1,.65-2.27,1.86-.75,2.56,2.48,1.14,4-.57,9.16-3.25s5.72-5.34,5.72-5.34,2.48,2.1,2.48,4.39-.19,5.53,1.15,5.91,2.28.58,2.28.58-.57,2.48.77,2.67c1,.14,1.34-2.19,1.46-3.44h-.13s2.29-9.34,2.1-12.4S117.66,168.38,113.46,165.52Z" style="fill:#263238"></path><path d="M92.57,193.92a2.45,2.45,0,0,1-.59-.07.5.5,0,0,1-.37-.36c0-.13-3.24-13-4.35-15.36-1.3-2.81,3.61-9.1,8.39-12.08s13.62-4,18.09-1c3.9,2.66,9.92,9,10.14,12.4.17,2.79-1.6,10.43-2,12.2a.45.45,0,0,1,.06.28c-.19,2-.59,3.18-1.2,3.65a1.11,1.11,0,0,1-.83.23,1.35,1.35,0,0,1-1-.59,3.34,3.34,0,0,1-.31-2.19c-.41-.09-1.06-.25-1.85-.48-1.56-.44-1.53-3.19-1.51-5.62v-.77a5.76,5.76,0,0,0-1.8-3.52c-.53,1.05-2,3-5.67,4.92-1.27.65-2.3,1.25-3.21,1.77-2.77,1.58-4.29,2.45-6.39,1.48a1.46,1.46,0,0,1-1-1.19,1.64,1.64,0,0,1,.36-1.06,3.11,3.11,0,0,0-2.35,1.09,4.64,4.64,0,0,0-.34,2.65,5,5,0,0,1-.21,2.26A2.13,2.13,0,0,1,92.57,193.92Zm-.07-1a1.2,1.2,0,0,0,1.24-.7,4.36,4.36,0,0,0,.12-1.81,5.57,5.57,0,0,1,.47-3.2c.71-1.27,2.34-1.49,3.64-1.67.38,0,.75-.1,1.06-.17a.48.48,0,0,1,.57.29.49.49,0,0,1-.18.61c-.83.54-1.25,1.08-1.23,1.32s.29.31.41.36c1.63.76,2.76.11,5.47-1.44.92-.53,2-1.12,3.25-1.79,4.82-2.5,5.46-5,5.46-5a.52.52,0,0,1,.33-.36.51.51,0,0,1,.48.09c.11.09,2.66,2.28,2.66,4.77V185c0,1.65,0,4.42.78,4.65,1.3.37,2.24.56,2.25.57a.47.47,0,0,1,.32.21.5.5,0,0,1,.07.39,3.05,3.05,0,0,0,.08,1.9.37.37,0,0,0,.27.16c.32-.22.67-1,.86-2.64a.48.48,0,0,1-.08-.42c0-.09,2.27-9.3,2.08-12.24s-5.48-8.76-9.7-11.64-12.65-1.75-17,1c-4.62,2.89-9,8.75-8,10.82C89.23,180,92,190.85,92.5,192.92Z" style="fill:#263238"></path><path d="M113.25,198.71a4.79,4.79,0,0,1-3-1,.5.5,0,0,1,.64-.76c.11.08,2.28,1.81,5.7-.42a.5.5,0,0,1,.55.84A7.13,7.13,0,0,1,113.25,198.71Z" style="fill:#263238"></path><path d="M99.52,198.71a4.8,4.8,0,0,1-3-1,.5.5,0,1,1,.65-.76c.1.08,2.28,1.81,5.7-.42a.5.5,0,1,1,.54.84A7.1,7.1,0,0,1,99.52,198.71Z" style="fill:#263238"></path><path d="M96.29,195a.49.49,0,0,1-.45-.3.5.5,0,0,1,.25-.66,11.21,11.21,0,0,1,6.43-.6.5.5,0,0,1,.36.61.49.49,0,0,1-.6.36,10.37,10.37,0,0,0-5.79.55A.45.45,0,0,1,96.29,195Z" style="fill:#263238"></path><path d="M116.32,194.63a.39.39,0,0,1-.18,0,8.12,8.12,0,0,0-5.18-.18.5.5,0,0,1-.34-.94,9,9,0,0,1,5.89.2.51.51,0,0,1,.28.65A.51.51,0,0,1,116.32,194.63Z" style="fill:#263238"></path><path d="M56.24,264s11.82-.77,13.54-.77,3,3.63,3.43,5.73.57,6.86.57,6.86-5.53,7.82-9.34,9.16-12.21-1.15-14.31-2.86-3.81-9.54-2.67-12.21,3.62-4.39,4.58-5.34" style="fill:#F35650"></path><path d="M61.7,285.81c-4.34,0-10.15-1.94-11.89-3.36-2.29-1.87-4.05-9.88-2.81-12.79a14,14,0,0,1,3.93-4.81c.3-.26.56-.49.76-.68a.49.49,0,1,1,.7.7c-.21.21-.48.45-.81.73a13.28,13.28,0,0,0-3.66,4.46c-1.05,2.44.6,10.05,2.53,11.62s10.26,4,13.82,2.78c3.35-1.18,8.25-7.8,9-8.84,0-.87-.23-4.81-.56-6.62-.4-2.22-1.72-5.32-2.94-5.32-1.68,0-13.39.76-13.51.77a.5.5,0,0,1-.53-.47.49.49,0,0,1,.46-.53c.49,0,11.87-.77,13.58-.77,2.3,0,3.61,4.43,3.92,6.14a67.27,67.27,0,0,1,.58,6.93.44.44,0,0,1-.09.31c-.23.33-5.67,8-9.59,9.34A8.79,8.79,0,0,1,61.7,285.81Z" style="fill:#263238"></path><polygon points="85.95 240.56 91.82 264.83 102.9 262.39 98.17 238.76 85.95 240.56" style="fill:#263238"></polygon><path d="M91.82,265.33a.5.5,0,0,1-.49-.38l-5.86-24.28a.45.45,0,0,1,.07-.39.49.49,0,0,1,.34-.22l12.22-1.79a.49.49,0,0,1,.56.4l4.73,23.62a.51.51,0,0,1-.39.59l-11.07,2.44ZM86.57,241l5.62,23.27L102.31,262l-4.54-22.68Z" style="fill:#263238"></path><path d="M79.7,263l3.24-3.24a59.45,59.45,0,0,1,2.1-6.68,35.16,35.16,0,0,1,2.86-4.19l.76,2.48s7.25-3.25,8.4-3.25a1.65,1.65,0,0,1,1.52,1.72c0,.57-8,4.39-8,4.39l-.95,1.33s6.86-2.67,8-3.43a6.75,6.75,0,0,1,2.48-1s1,1.52.57,2.28-.76,1.72-.76,1.72a2.88,2.88,0,0,1-.16,1.49,6.31,6.31,0,0,1-2.29,3.07s-2.51,3.07-3.85,4.41-6.1,2.48-6.1,2.48l-9,5.72s-1.33-1.15-1.33-4.39A6.35,6.35,0,0,1,79.7,263Z" style="fill:#fff"></path><path d="M78.55,272.84a.49.49,0,0,1-.32-.12c-.06-.05-1.51-1.34-1.51-4.77a6.8,6.8,0,0,1,2.65-5.34l3.12-3.12a54.38,54.38,0,0,1,2.1-6.64,35.16,35.16,0,0,1,2.92-4.28.5.5,0,0,1,.48-.19.53.53,0,0,1,.39.35l.6,1.94c1.91-.85,7-3.06,8.08-3.06a2.13,2.13,0,0,1,2,2.22c0,.33,0,.82-6.84,4.14a49.61,49.61,0,0,0,5.11-2.27,7.41,7.41,0,0,1,2.69-1,.49.49,0,0,1,.49.23c.19.29,1.08,1.81.6,2.78-.29.57-.57,1.25-.69,1.54a4.37,4.37,0,0,1-.2,1.57,6.7,6.7,0,0,1-2.42,3.31c-.35.42-2.59,3.13-3.84,4.39s-5.48,2.4-6.26,2.59l-8.9,5.68A.5.5,0,0,1,78.55,272.84ZM87.71,250a27.36,27.36,0,0,0-2.22,3.35,58.45,58.45,0,0,0-2.07,6.57.41.41,0,0,1-.13.23l-3.24,3.25a.18.18,0,0,1-.07,0A5.81,5.81,0,0,0,77.72,268a6.41,6.41,0,0,0,.93,3.73l8.6-5.49.15-.06c1.29-.31,4.86-1.33,5.87-2.35,1.3-1.3,3.79-4.34,3.82-4.37a.43.43,0,0,1,.1-.09,5.7,5.7,0,0,0,2.08-2.79,3.06,3.06,0,0,0,.17-1.22.44.44,0,0,1,0-.32s.4-1,.78-1.76c.14-.28-.1-1-.38-1.5a5.9,5.9,0,0,0-1.94.81c-1.18.78-7.83,3.37-8.11,3.48a.5.5,0,0,1-.59-.76l1-1.33a.45.45,0,0,1,.2-.16,70.36,70.36,0,0,0,7.71-4.08c0-.37-.28-1.08-1-1.08s-5.22,1.87-8.19,3.2a.5.5,0,0,1-.68-.31Zm-8,13h0Zm18.45-13.38Z" style="fill:#263238"></path><path d="M90.57,259.87a.52.52,0,0,1-.41-.21.51.51,0,0,1,.12-.7c1.92-1.34,9.29-5,9.6-5.19a.52.52,0,0,1,.68.22.51.51,0,0,1-.23.68c-.07,0-7.62,3.81-9.47,5.11A.52.52,0,0,1,90.57,259.87Z" style="fill:#263238"></path><path d="M90.86,263.14a.49.49,0,0,1-.45-.3.49.49,0,0,1,.25-.66l6.61-2.91a.49.49,0,0,1,.66.26.5.5,0,0,1-.25.66l-6.62,2.91A.45.45,0,0,1,90.86,263.14Z" style="fill:#263238"></path><path d="M81.22,261.08s-2.48,3.06-2.29,5.92,2.29,7.63,2.29,7.63a44.5,44.5,0,0,0-4.76,3.62c-1.34,1.34-4.39,2.1-5.54-.38s-3-8-2.29-11.25,2.29-4.2,3.06-4.39S79.89,261.28,81.22,261.08Z" style="fill:#F35650"></path><path d="M73.47,280a3.68,3.68,0,0,1-.66-.06,3.1,3.1,0,0,1-2.34-1.86c-1.16-2.5-3.13-8.15-2.32-11.58.9-3.85,2.84-4.61,3.41-4.76s2.82-.38,6.08-.74c1.59-.18,3-.34,3.51-.41a.5.5,0,0,1,.46.81s-2.35,2.94-2.18,5.56,2.23,7.42,2.25,7.47a.49.49,0,0,1-.18.61,44.86,44.86,0,0,0-4.69,3.57A5,5,0,0,1,73.47,280Zm6.69-18.28-2.4.27c-2.33.26-5.52.61-6,.72s-1.89.64-2.69,4c-.69,2.94,1,8.15,2.26,10.93A2.11,2.11,0,0,0,73,279a3.85,3.85,0,0,0,3.11-1.06,41.13,41.13,0,0,1,4.5-3.46A28.51,28.51,0,0,1,78.44,267,9.37,9.37,0,0,1,80.16,261.72Z" style="fill:#263238"></path><path d="M142.42,249.71s-3.33-10-4.52-11.87-3.08-3.09-3.79-3.09-5-1.19-6.18-1.19-3.32.71-2.85,2.85l.48,2.14s-.48,3.8-.48,4.75,1.9,2.61,1.9,2.61a16.7,16.7,0,0,0,.71,3.8c.48.95,8.08,3.09,8.08,3.09l.71.95,1.42.71Z" style="fill:#fff"></path><path d="M137.9,255a.59.59,0,0,1-.22-.05l-1.42-.72a.49.49,0,0,1-.18-.14l-.61-.82c-2.94-.83-7.73-2.32-8.22-3.3a14.69,14.69,0,0,1-.75-3.78c-.54-.49-1.92-1.85-1.92-2.85s.4-4.14.47-4.73l-.46-2a2.58,2.58,0,0,1,.45-2.23,3.83,3.83,0,0,1,2.89-1.23,25.69,25.69,0,0,1,3.87.72,23.07,23.07,0,0,0,2.31.47c1,0,3,1.42,4.22,3.32s4.42,11.57,4.56,12a.48.48,0,0,1-.11.5l-4.51,4.75A.52.52,0,0,1,137.9,255Zm-1.09-1.61,1,.5,4-4.27c-.55-1.63-3.34-9.83-4.37-11.48a6.39,6.39,0,0,0-3.37-2.85,18.45,18.45,0,0,1-2.53-.49,27.22,27.22,0,0,0-3.65-.7,2.88,2.88,0,0,0-2.11.86,1.55,1.55,0,0,0-.25,1.38l.47,2.14a.33.33,0,0,1,0,.17s-.47,3.78-.47,4.69c0,.44.9,1.51,1.73,2.23a.51.51,0,0,1,.17.34,15.39,15.39,0,0,0,.66,3.62c.39.5,4.34,1.86,7.76,2.82a.52.52,0,0,1,.27.19Z" style="fill:#263238"></path><path d="M146.45,254s6.42,3.57,8.31,4.28,4.28.95,6.89,5,1.66,10.69,0,14.25S154.53,282,151,282s-7.13-7.36-9-9.49-5-8.32-5-8.32Z" style="fill:#F35650"></path><path d="M151,282.5c-2.88,0-5.48-3.93-7.58-7.1a27,27,0,0,0-1.82-2.56c-1.92-2.16-4.93-8.17-5.06-8.42a.5.5,0,0,1,.08-.57l9.5-10.21a.49.49,0,0,1,.61-.09c.06,0,6.4,3.55,8.24,4.24l.84.29a10.29,10.29,0,0,1,6.29,4.89c2.77,4.28,1.69,11.19,0,14.73S155.27,282.5,151,282.5Zm-13.41-18.22c.65,1.27,3.16,6.1,4.76,7.89a28.16,28.16,0,0,1,1.9,2.68c1.86,2.81,4.41,6.65,6.75,6.65,4,0,8.78-1.1,10.23-4.22,1.55-3.33,2.59-9.81,0-13.76a9.3,9.3,0,0,0-5.76-4.49l-.88-.3c-1.68-.63-6.67-3.36-8-4.12Z" style="fill:#263238"></path><path d="M143.37,248.28s-4.75,2.62-6.89,5.47-4,5.46-4,6.88,4,6.89,4,6.89l12.35-12.82S146,250,143.37,248.28Z" style="fill:#F35650"></path><path d="M136.48,268h0a.53.53,0,0,1-.37-.2c-.69-.94-4.14-5.67-4.14-7.19s1.8-4.06,4.14-7.18c2.18-2.91,6.85-5.49,7-5.6a.49.49,0,0,1,.51,0c2.68,1.71,5.5,6.38,5.62,6.58a.5.5,0,0,1-.07.6l-12.35,12.83A.51.51,0,0,1,136.48,268Zm6.86-19.15c-1,.59-4.7,2.82-6.46,5.18-1.66,2.21-3.94,5.24-3.94,6.58,0,.81,2,3.9,3.59,6.11l11.67-12.11C147.54,253.59,145.37,250.31,143.34,248.87Z" style="fill:#263238"></path><path d="M74.06,448.28l-2,5.54s-5.86,2.28-6.84,3.91-1,7.16-1,7.16H88.4s.65-5.21.65-8.14v-6.84Z" style="fill:#fff"></path><path d="M88.4,465.39H64.28a.5.5,0,0,1-.5-.5c0-.58,0-5.72,1-7.42s5.69-3.56,6.88-4l1.88-5.32a.5.5,0,0,1,.52-.33l15,1.63a.5.5,0,0,1,.45.5v6.84c0,2.93-.63,8-.66,8.21A.49.49,0,0,1,88.4,465.39Zm-23.61-1H88c.16-1.31.6-5.27.6-7.64v-6.4L74.4,448.82,72.58,454a.51.51,0,0,1-.29.3c-2.21.86-6,2.62-6.6,3.7S64.82,462.62,64.79,464.39Zm7.31-10.57h0Z" style="fill:#263238"></path><path d="M88.69,462.29H64.38c-.09,1.42-.1,2.6-.1,2.6H88.4S88.54,463.78,88.69,462.29Z" style="fill:#fff"></path><path d="M88.4,465.39H64.29a.48.48,0,0,1-.5-.5c0-.05,0-1.21.09-2.64a.5.5,0,0,1,.5-.46H88.69a.52.52,0,0,1,.37.16.51.51,0,0,1,.12.39c-.15,1.49-.29,2.62-.29,2.62A.49.49,0,0,1,88.4,465.39Zm-23.61-1H88c0-.36.11-.93.18-1.6H64.85C64.82,463.44,64.8,464,64.79,464.39Z" style="fill:#263238"></path></g><g id="freepik--Floor--inject-8"><path d="M476.65,465.39H19.77a.5.5,0,0,1-.5-.5.5.5,0,0,1,.5-.5H476.65a.5.5,0,0,1,.5.5A.5.5,0,0,1,476.65,465.39Z" style="fill:#263238"></path></g></svg>
