<?xml version="1.0" encoding="utf-8"?><svg xml:space="preserve" viewBox="0 0 100 100" y="0" x="0" xmlns="http://www.w3.org/2000/svg" id="圖層_1" version="1.1" width="200px" height="200px" xmlns:xlink="http://www.w3.org/1999/xlink" style="width:100%;height:100%;background-size:initial;background-repeat-y:initial;background-repeat-x:initial;background-position-y:initial;background-position-x:initial;background-origin:initial;background-color:initial;background-clip:initial;background-attachment:initial;animation-play-state:paused" ><g class="ldl-scale" style="transform-origin:50% 50%;transform:rotate(0deg) scale(0.8, 0.8);animation-play-state:paused" ><circle fill="#333" r="40" cy="50" cx="50" style="fill:rgb(243, 86, 80);animation-play-state:paused" ></circle>
<g style="animation-play-state:paused" ><path fill="#fff" d="M69.2 42l-.9-9.8c-.3-3.5-3.2-6.1-6.7-6.1h-.8c-1.3 0-2.3 1-2.3 2.3v2.1c0 1.3 1 2.3 2.3 2.3h.8s.1 0 .1.1l.8 9.5v.4c0 .2 0 .5-.1.7-.1.4-.2.8-.4 1.2-.3.7-.8 1.4-1.3 2-1 1-2.2 1.6-3.6 1.8-.3 0-.5.1-.8.1-.3 0-.6 0-.9-.1-1.4-.2-2.6-.8-3.5-1.8-.6-.6-1-1.2-1.3-2-.2-.4-.3-.9-.4-1.3 0-.2-.1-.4-.1-.6v-.4l.8-9.5s0-.1.1-.1h.8c1.3 0 2.3-1 2.3-2.3v-2.1c0-1.3-1-2.3-2.3-2.3H51c-3.5 0-6.4 2.6-6.7 6.1l-.8 9.7v.1c0 .4 0 .9.1 1.3l.1 1.3h.1c.2.8.4 1.6.8 2.4.6 1.5 1.6 2.9 2.8 4.1 1.2 1.2 2.6 2.1 4.1 2.8.5.2 1.1.4 1.7.6v7.7c0 2.8-2.3 5.2-5.2 5.2h-.5c-.6-.1-1.2-.2-1.7-.5 0 0-.1 0-.1-.1-1.2-.6-2.1-1.7-2.5-3 1.2-1.3 1.9-2.9 1.9-4.8 0-3.9-3.2-7.1-7.1-7.1-3.9 0-7.1 3.2-7.1 7.1 0 3.5 2.6 6.4 5.9 7 1 3 3.2 5.6 6.3 7l1 .5v-.1c1.2.4 2.5.7 3.8.7 6.3 0 11.5-4.9 11.8-11.2v-.1-8c.6-.2 1.2-.3 1.7-.6 1.5-.7 2.9-1.6 4.1-2.8 1.2-1.2 2.1-2.6 2.8-4.1.3-.8.6-1.6.8-2.4H69l.1-1.3c.1-.7.1-1.1.1-1.6zM52.7 28.3v2.1c0 .5-.4.9-.9.9H51c-.8 0-1.4.6-1.5 1.4l-.8 9.6c0 .4 0 .7.1 1.1H45c0-.4-.1-.8-.1-1.2v-.1l.8-9.7c.2-2.8 2.5-4.8 5.3-4.8h.8c.5-.2.9.2.9.7zM32.2 59c0-3.1 2.5-5.7 5.7-5.7 3.1 0 5.7 2.5 5.7 5.7 0 3.1-2.5 5.7-5.7 5.7-3.2-.1-5.7-2.6-5.7-5.7zm28.7-27.8c-.5 0-.9-.4-.9-.9v-2.1c0-.5.4-.9.9-.9h.8c2.8 0 5 2.1 5.3 4.8l.9 9.8c0 .4 0 .8-.1 1.2h-3.9c.1-.4.1-.7.1-1.1l-.8-9.5c-.1-.8-.7-1.4-1.5-1.4h-.8z" style="fill:rgb(255, 255, 255);animation-play-state:paused" ></path>
<circle fill="#fff" r="3.3" cy="59" cx="37.8" style="fill:rgb(255, 255, 255);animation-play-state:paused" ></circle></g>
<metadata xmlns:d="https://loading.io/stock/" style="animation-play-state:paused" ><d:name style="animation-play-state:paused" >stethoscope</d:name>
<d:tags style="animation-play-state:paused" >stethoscope,doctor,treatment,diagnosis,health check,hospital</d:tags>
<d:license style="animation-play-state:paused" >by</d:license>
<d:slug style="animation-play-state:paused" >y58xdk</d:slug></metadata></g><!-- generated by https://loading.io/ --></svg>