<svg xmlns="http://www.w3.org/2000/svg" viewBox="0 0 750 500"><g id="freepik--background-simple--inject-2"><path d="M460.42,39S377.78,9.62,296.66,56.4s-122,139.66-157.2,214.05-14.92,150.06,47,184.57,104-16.36,190.91-18.84,110.23,9.94,182.32-39.13,85.11-165,28.25-250.73S460.42,39,460.42,39Z" style="fill:#F35650"></path><path d="M460.42,39S377.78,9.62,296.66,56.4s-122,139.66-157.2,214.05-14.92,150.06,47,184.57,104-16.36,190.91-18.84,110.23,9.94,182.32-39.13,85.11-165,28.25-250.73S460.42,39,460.42,39Z" style="fill:#fff;opacity:0.7000000000000001"></path></g><g id="freepik--character-2--inject-2"><path d="M535,458.7,533.74,481a3.46,3.46,0,0,0,2.1,1.85c1.35.24,30.78,0,30.78,0a7.64,7.64,0,0,0-.24-3.58,4.67,4.67,0,0,0-3.2-3.2c-1.48-.37-11.7-5.05-12.57-5.42s-1.35-6.28-1.35-6.28Z" style="fill:#fff;stroke:#263238;stroke-miterlimit:10;stroke-width:1.1091948959003437px"></path><path d="M566.62,482.84a8,8,0,0,0,0-2.39l-32.84-.88-.08,1.42a3.46,3.46,0,0,0,2.1,1.85C537.19,483.08,566.62,482.84,566.62,482.84Z" style="fill:#fff;stroke:#263238;stroke-miterlimit:10;stroke-width:1.1091948959003437px"></path><path d="M541.11,345.72s2.53,54.72,2.25,56.4l-9.54,57.52s8.13,4.49,12.06,5.33a71.89,71.89,0,0,0,9.26,1.12s12.91-52.47,13.47-55.55S562.15,341,562.15,341Z" style="fill:#263238;stroke:#263238;stroke-miterlimit:10;stroke-width:1.1091948959003437px"></path><path d="M541.5,452.79s-11.45,15.76-10.1,17.36,11.33,11.08,13.8,12.19,25,0,25,0a6.4,6.4,0,0,0,.37-2c0-1-.12-4.8-1.47-5.91s-11.58-5.91-12-6.65-.86-6.77-.86-6.77Z" style="fill:#fff;stroke:#263238;stroke-miterlimit:10;stroke-width:1.1091948959003437px"></path><path d="M570.19,482.34a6.4,6.4,0,0,0,.37-2v-.46l-15.64.59s-4.8.73-7.38-1.36c-2.17-1.75-11.66-10.4-14.7-13.18-1.15,2.1-1.82,3.73-1.44,4.19,1.36,1.6,11.33,11.08,13.8,12.19S570.19,482.34,570.19,482.34Z" style="fill:#fff;stroke:#263238;stroke-miterlimit:10;stroke-width:1.1091948959003437px"></path><path d="M533,320.19s1.69,16.27,3.09,18.8,3.65,6.45,3.65,6.45L561,405.21l-21.88,48.26s16,10.38,19.36,11.5a17.65,17.65,0,0,0,4.49,1.12s25.81-60.32,25.81-64.53-18-64.53-18-64.53L572,316.26Z" style="fill:#263238;stroke:#263238;stroke-miterlimit:10;stroke-width:1.1091948959003437px"></path><polyline points="554.28 325.24 566.08 329.96 556.3 322.2 563.04 325.24" style="fill:none;stroke:#696969;stroke-linecap:round;stroke-linejoin:round;stroke-width:1.1091948959003437px"></polyline><polyline points="547.5 366.24 561.03 405.21 541.39 450.38" style="fill:none;stroke:#696969;stroke-miterlimit:10;stroke-width:1.1091948959003437px"></polyline><line x1="544.76" y1="358.35" x2="546.15" y2="362.37" style="fill:none;stroke:#696969;stroke-miterlimit:10;stroke-width:1.1091948959003437px"></line><path d="M587.3,290s6.64-6.24,8-7,6.77-2.39,7.16-4.25-.13-11-.66-10.61-7.56,10.35-7.56,10.35l-9.16,7.17Z" style="fill:#fff;stroke:#263238;stroke-miterlimit:10;stroke-width:1.1091948959003437px"></path><line x1="596.73" y1="275.54" x2="595.93" y2="281.64" style="fill:#fff;stroke:#263238;stroke-miterlimit:10;stroke-width:1.1091948959003437px"></line><line x1="598.85" y1="272.35" x2="599.12" y2="279.79" style="fill:#fff;stroke:#263238;stroke-miterlimit:10;stroke-width:1.1091948959003437px"></line><path d="M601,269.83s-.13,7.83,0,8.63" style="fill:#fff;stroke:#263238;stroke-miterlimit:10;stroke-width:1.1091948959003437px"></path><path d="M602.83,276.6s2.26-2.79,1.73-4.64a3.6,3.6,0,0,0-2.13-2.39Z" style="fill:#fff;stroke:#263238;stroke-miterlimit:10;stroke-width:1.1091948959003437px"></path><path d="M586.51,282.84c.4.26,3.58,5.17,3.58,5.17l-4,5.31s2,3.72.8,4.65-11.15,6.1-11.15,6.1l-3.32-13.4s7.43-4.65,7.83-4.51a4.13,4.13,0,0,1,1.06.79Z" style="fill:#F35650;stroke:#263238;stroke-miterlimit:10;stroke-width:1.1091948959003437px"></path><polygon points="590.74 281.05 592.12 282 606.74 261.08 605.36 260.12 590.74 281.05" style="fill:#263238;stroke:#263238;stroke-miterlimit:10;stroke-width:1.1091948959003437px"></polygon><path d="M549.14,242.53c-.82.4-12.41,14.44-16.69,19.93s-3.86,14.45-3.66,19.33-2,41.1-2,41.1,17.7-1.42,28.28-2.44,25.63-2,25.63-2-4.27-18.71-6.3-27.06-5.29-20.34-7.53-26a79.53,79.53,0,0,0-5.5-11Z" style="fill:#F35650;stroke:#263238;stroke-miterlimit:10;stroke-width:1.1091948959003437px"></path><path d="M570.7,243.14l-6.51,7.32-10-12.61,5.9-6.92s3.46-3.66,5.5-3.26S570.7,243.14,570.7,243.14Z" style="fill:#fff;stroke:#263238;stroke-miterlimit:10;stroke-width:1.1091948959003437px"></path><polygon points="563.79 235.61 567.76 246.68 570.7 243.14 563.79 235.61" style="fill:#263238;stroke:#263238;stroke-miterlimit:10;stroke-width:1.1091948959003437px"></polygon><path d="M563,230.73s-2.44,3.86-4.47,3.05-7.53-6.72-10-14,6.51-8.55,7.93-11.39,2.65-3.26,4.68-13.23,24.82-6.1,28.28-.81,2.85,15.87,12.41,12.41,19.94-7.12,22.18,1.42-5.09,18.92-2.44,22.59,11.19,1,10.58,4.47-5.09,5.7-3.67,6.51,9.36-3.25,7.12.41-6.91,7.53-7.52,5.9,0-3.66-2.24-2.44-9,6.1-11.8,3.46.81-12.21-3.87-13.23-16.07,2.24-19.94,2.44-4.27-1-11.39-4.47S563,230.73,563,230.73Z" style="fill:#263238;stroke:#263238;stroke-miterlimit:10;stroke-width:1.1091948959003437px"></path><path d="M564.6,225s12,.61,19.73-1.43a73.26,73.26,0,0,0,10.38-3.25s.2,7.93-1.83,10.17-4.68,4.27-4.68,5.9,2,4.27.81,5.7-4.07,1.42-4.88,1.42-7.32,6.11-9.15,6.11-11-12.21-11.19-14a64.32,64.32,0,0,1,0-6.51" style="fill:#fff;stroke:#263238;stroke-miterlimit:10;stroke-width:1.1091948959003437px"></path><path d="M586,232.15l-2.24,2.64a3.78,3.78,0,0,1-3.05-2.64" style="fill:none;stroke:#263238;stroke-miterlimit:10;stroke-width:1.1091948959003437px"></path><path d="M578.43,238.25s-.2,3.26,2.45,3.67" style="fill:none;stroke:#263238;stroke-miterlimit:10;stroke-width:1.1091948959003437px"></path><path d="M583.52,228.69s3.66-1.22,5.29,1.83" style="fill:none;stroke:#263238;stroke-miterlimit:10;stroke-width:1.1091948959003437px"></path><path d="M567.65,228.08s-3-9-5.9-5.7-1.22,9,1,10.18a4.52,4.52,0,0,0,4.27,0" style="fill:#fff;stroke:#263238;stroke-miterlimit:10;stroke-width:1.1091948959003437px"></path><path d="M555,234.59s13.42,13.23,13,15.06-2.65,3-2.65,3,.61,3.66-.4,4.47a5.39,5.39,0,0,1-2.24,1S550,245,548.32,242.93s-.4-3.05.61-3.46a13.38,13.38,0,0,1,2.24-.61S552.6,234,555,234.59Z" style="fill:#F35650;stroke:#263238;stroke-miterlimit:10;stroke-width:1.1091948959003437px"></path><path d="M535.57,264.15a94.5,94.5,0,0,0-1.26,14.31c0,7.15,2.94,42.29,4.42,44.19s7.36,3.57,9.89,1.89,24.41-15.78,24.62-18.1-3.37-10.73-4.84-11.36-2.74-.42-4.84,1.47A63.72,63.72,0,0,1,556,301.6s-1.47-26.93-3.15-33.46-2.53-7.78-3.58-8.2" style="fill:#F35650;stroke:#263238;stroke-miterlimit:10;stroke-width:1.1091948959003437px"></path><path d="M574.37,291.35s6-14.37,6.44-15.42,1.9-2.74,3.16-2.95,10.94-2.31,11.78-2.52,1.48.84-.84,2.31-8,2.11-8,2.11l-.85,6.31s5.69-4.42,5.69-2.1-4.21,3.78-4.84,4S584.6,286,584,286.45a17.21,17.21,0,0,1-3,1.05s-.42,2.53-1.26,3.37-4.63,3.58-4.63,3.58Z" style="fill:#fff;stroke:#263238;stroke-miterlimit:10;stroke-width:1.1091948959003437px"></path><path d="M580.81,275.93s2.44-3,2.8-3a52.31,52.31,0,0,1,4.93,3.95c.3.29-1.58,3.35-1.87,3.84s-.4.89-1.19.6a5.8,5.8,0,0,1-1.48-.89" style="fill:#fff;stroke:#263238;stroke-miterlimit:10;stroke-width:1.1091948959003437px"></path><path d="M580.16,278.38s2.66-3,3.05-3,3.75,2.66,3.75,3.15-.59,3.46-1.08,3.56a10.26,10.26,0,0,1-2.07-.2" style="fill:#fff;stroke:#263238;stroke-miterlimit:10;stroke-width:1.1091948959003437px"></path><path d="M580.06,281.24a14.05,14.05,0,0,1,2.37-2.07c.78-.4,2.56,1.28,3.64,2s2.37,1.13,1.78,1.82-2.86-.29-3.35-.29a5.82,5.82,0,0,1-1.58-.5l-1.28,3.85" style="fill:#fff;stroke:#263238;stroke-miterlimit:10;stroke-width:1.1091948959003437px"></path><path d="M567.35,295.71l7.36-5.89,3.37,6.31-6.32,6.52S567.35,301.81,567.35,295.71Z" style="fill:#F35650;stroke:#263238;stroke-miterlimit:10;stroke-width:1.1091948959003437px"></path></g><g id="freepik--Floor--inject-2"><line x1="99" y1="482.9" x2="619.29" y2="482.9" style="fill:none;stroke:#263238;stroke-miterlimit:10;stroke-width:1.1091948959003437px"></line></g></svg>